<svg width="319" height="334" viewBox="0 0 319 334" fill="none" xmlns="http://www.w3.org/2000/svg">
<g style="mix-blend-mode:luminosity">
<path d="M293.272 241.798C300.407 196.428 285.776 142.237 249.468 96.024C213.16 49.8111 163.966 22.6553 118.295 18.8018L65.3689 20.9092L37.0089 43.3684C-15.2855 88.9491 -11.9135 182.79 45.5591 256.038C103.032 329.286 193.44 354.846 250.07 314.896L278.671 292.677L293.272 241.798Z" fill="url(#paint0_linear_1752_51892)"/>
<path d="M273.893 292.47C219.04 335.491 127.517 310.533 69.4728 236.472C11.4282 162.411 8.80902 67.6671 63.6624 24.6153C118.516 -18.4365 210.038 6.55163 268.083 80.6127C326.128 154.674 328.717 249.418 273.893 292.47Z" fill="url(#paint1_linear_1752_51892)"/>
<path d="M208.923 316.612C158.676 316.612 104.214 287.017 66.7918 239.329C38.4018 203.202 22.3251 160.752 21.6326 119.898C20.9402 79.0442 35.7223 44.121 63.42 22.3844C82.8448 7.48504 106.742 -0.399212 131.219 0.0155679C181.466 0.0155679 235.928 29.64 273.32 77.298C332.147 152.262 333.713 249.565 276.782 294.243C257.341 309.155 233.421 317.04 208.923 316.612ZM131.159 6.03679C108.028 5.63006 85.4391 13.0571 67.0628 27.1111C40.9006 47.6736 26.8711 80.5796 27.5937 119.808C28.3162 159.036 43.9413 200.462 71.5486 235.626C107.676 281.869 160.482 310.59 208.923 310.59C232.046 311.005 254.627 303.576 272.989 289.516C327.18 246.886 325.313 153.346 268.533 81.0011C232.225 34.758 179.6 6.03679 131.159 6.03679Z" fill="url(#paint2_linear_1752_51892)"/>
<path d="M202.287 285.152C162.035 285.152 118.23 261.067 87.8832 222.682C40.6166 162.47 38.9607 84.5851 84.1801 49.09C99.4969 37.3606 118.329 31.154 137.619 31.4779C177.87 31.4779 221.675 55.5628 252.022 93.9481C274.842 123.001 287.818 156.96 288.631 189.595C289.444 222.23 277.793 250.229 255.665 267.54C240.364 279.257 221.555 285.462 202.287 285.152ZM137.739 37.4991C119.795 37.1785 102.27 42.9284 88.0036 53.8166C45.4035 87.2645 47.541 161.356 92.7303 218.979C121.873 256.07 163.841 279.191 202.287 279.191C220.23 279.512 237.756 273.762 252.022 262.874C272.524 246.767 283.392 220.725 282.64 189.806C281.887 158.887 269.303 125.77 247.295 97.7114C218.183 60.5604 176.185 37.4991 137.739 37.4991Z" fill="url(#paint3_linear_1752_51892)"/>
<path d="M184.436 101.444L154.33 125.077L150.055 119.658C147.285 115.672 143.937 112.12 140.12 109.121C139.08 108.52 137.872 108.277 136.681 108.429C135.49 108.581 134.381 109.121 133.527 109.964C132.665 110.582 131.992 111.427 131.582 112.405C131.173 113.384 131.044 114.456 131.209 115.504C131.844 118.484 133.233 121.252 135.243 123.542C139.277 128.69 143.04 131.52 146.563 132.092C155.118 132.619 163.703 132.367 172.213 131.34C180.43 130.448 188.705 130.206 196.96 130.617C202.639 131.387 208.083 133.38 212.917 136.458C219.598 140.698 225.436 146.139 230.137 152.504C239.33 164.185 243.936 175.375 243.956 186.073C243.976 196.77 239.45 206.966 230.378 216.66L240.072 229.004L226.193 239.872L216.198 227.137C207.558 232.573 197.307 234.859 187.176 233.61C176.538 232.466 165.499 224.588 154.059 209.977L149.031 203.594L179.138 179.931L185.46 187.969C189.525 193.65 194.155 198.906 199.279 203.655C200.289 204.459 201.558 204.869 202.848 204.808C204.138 204.747 205.363 204.219 206.293 203.323C207.229 202.686 207.981 201.814 208.473 200.794C208.964 199.774 209.178 198.642 209.093 197.513C208.626 194.623 207.341 191.928 205.39 189.745C201.454 184.277 196.819 179.348 191.601 175.084C188.149 172.655 182.208 171.742 173.779 172.344C163.938 173.182 154.058 173.473 144.184 173.217C137.731 172.61 131.476 170.662 125.82 167.497C118.849 163.713 112.763 158.49 107.967 152.173C100.259 142.399 96.7772 132.714 97.5198 123.121C98.2624 113.527 103.21 104.094 112.362 94.8208L104.143 84.374L118.022 73.4756L126.211 83.9525C136.547 77.9313 146.171 75.864 155.083 77.7507C163.994 79.6373 172.263 85.4077 179.89 95.0617C180.944 96.4165 182.449 98.554 184.436 101.444Z" fill="url(#paint4_linear_1752_51892)"/>
<path d="M195.697 92.5921L165.591 116.225L161.316 110.806C158.539 106.816 155.18 103.265 151.351 100.269C150.317 99.6651 149.113 99.4202 147.925 99.5727C146.738 99.7252 145.635 100.267 144.788 101.112C143.923 101.728 143.248 102.572 142.838 103.551C142.429 104.53 142.301 105.604 142.469 106.652C143.1 109.634 144.489 112.403 146.504 114.69C150.518 119.808 154.291 122.658 157.823 123.24C166.389 123.767 174.984 123.515 183.504 122.488C191.711 121.596 199.976 121.355 208.221 121.765C213.909 122.535 219.363 124.527 224.207 127.606C230.882 131.842 236.72 137.271 241.428 143.622C250.46 155.333 255.217 166.503 255.247 177.22C255.277 187.938 250.791 198.114 241.669 207.808L251.363 220.152L237.605 231.05L227.609 218.285C218.935 223.746 208.637 226.033 198.467 224.758C187.829 223.614 176.79 215.736 165.35 201.125L160.352 194.712L190.459 171.079L196.751 179.117C200.816 184.781 205.424 190.034 210.509 194.802C211.525 195.609 212.798 196.02 214.094 195.959C215.389 195.898 216.619 195.37 217.554 194.471C218.488 193.832 219.238 192.959 219.729 191.94C220.221 190.92 220.436 189.79 220.354 188.661C219.887 185.771 218.602 183.076 216.651 180.893C212.71 175.465 208.086 170.568 202.892 166.322C199.46 163.883 193.499 162.98 185.07 163.582C175.218 164.42 165.328 164.712 155.445 164.455C149.002 163.844 142.758 161.896 137.11 158.735C130.131 154.953 124.035 149.729 119.227 143.411C111.54 133.637 108.058 123.953 108.781 114.359C109.503 104.765 114.461 95.3318 123.653 86.0591L115.434 75.6123L129.283 64.7139L137.502 75.1908C147.838 69.1696 157.462 67.1023 166.374 68.9889C175.285 70.8756 183.544 76.6459 191.151 86.3C192.235 87.5644 193.74 89.6718 195.697 92.5921Z" fill="url(#paint5_linear_1752_51892)"/>
<path style="mix-blend-mode:screen" d="M242.423 61.4339C251.033 69.6528 205.633 97.3204 140.995 123.272C76.3574 149.223 16.9881 163.644 8.34761 155.455C-0.292852 147.266 45.1072 119.599 109.745 93.6173C174.383 67.6357 233.782 53.2751 242.423 61.4339Z" fill="url(#paint6_radial_1752_51892)"/>
<path style="mix-blend-mode:screen" d="M196.863 129.083C191.925 134.562 155.918 129.745 116.419 118.335C76.92 106.925 48.9514 93.2867 53.949 87.8074C58.9466 82.3281 94.8934 87.1752 134.363 98.5553C173.832 109.935 201.8 123.634 196.863 129.083Z" fill="url(#paint7_radial_1752_51892)"/>
</g>
<defs>
<linearGradient id="paint0_linear_1752_51892" x1="29.7696" y1="36.2007" x2="252.856" y2="324.741" gradientUnits="userSpaceOnUse">
<stop stop-color="#CB6E10"/>
<stop offset="0.02" stop-color="#CB6E10"/>
<stop offset="0.03" stop-color="#D37812"/>
<stop offset="0.04" stop-color="#DF8314"/>
<stop offset="0.05" stop-color="#DA7C12"/>
<stop offset="0.06" stop-color="#DA7C12"/>
<stop offset="0.07" stop-color="#E89317"/>
<stop offset="0.08" stop-color="#CC7010"/>
<stop offset="0.1" stop-color="#D27712"/>
<stop offset="0.11" stop-color="#DC8114"/>
<stop offset="0.12" stop-color="#CE6F10"/>
<stop offset="0.14" stop-color="#DB7F14"/>
<stop offset="0.15" stop-color="#E08615"/>
<stop offset="0.16" stop-color="#CD6D10"/>
<stop offset="0.19" stop-color="#CD6D10"/>
<stop offset="0.21" stop-color="#DD8214"/>
<stop offset="0.22" stop-color="#CD6D10"/>
<stop offset="0.25" stop-color="#CD6D10"/>
<stop offset="0.27" stop-color="#E07C15"/>
<stop offset="0.28" stop-color="#D46A12"/>
<stop offset="0.29" stop-color="#D36812"/>
<stop offset="0.32" stop-color="#D97314"/>
<stop offset="0.33" stop-color="#E07C15"/>
<stop offset="0.34" stop-color="#D46A12"/>
<stop offset="0.35" stop-color="#D36812"/>
<stop offset="0.37" stop-color="#D36812"/>
<stop offset="0.38" stop-color="#D97314"/>
<stop offset="0.39" stop-color="#E07C15"/>
<stop offset="0.4" stop-color="#D46A12"/>
<stop offset="0.41" stop-color="#D36812"/>
<stop offset="0.44" stop-color="#D97314"/>
<stop offset="0.45" stop-color="#F7A31B"/>
<stop offset="0.46" stop-color="#D46A12"/>
<stop offset="0.47" stop-color="#D36812"/>
<stop offset="0.5" stop-color="#D97314"/>
<stop offset="0.51" stop-color="#FFB01D"/>
<stop offset="0.52" stop-color="#E07C15"/>
<stop offset="0.53" stop-color="#D87113"/>
<stop offset="0.54" stop-color="#D46A12"/>
<stop offset="0.55" stop-color="#D36812"/>
<stop offset="0.57" stop-color="#FFB01D"/>
<stop offset="0.58" stop-color="#C1680A"/>
<stop offset="0.59" stop-color="#A84C02"/>
<stop offset="0.6" stop-color="#A34500"/>
<stop offset="0.61" stop-color="#A14300"/>
<stop offset="0.62" stop-color="#CA730D"/>
<stop offset="0.63" stop-color="#BF7315"/>
<stop offset="0.64" stop-color="#7A310D"/>
<stop offset="0.65" stop-color="#70290C"/>
<stop offset="0.67" stop-color="#722C0C"/>
<stop offset="0.68" stop-color="#AB6213"/>
<stop offset="0.69" stop-color="#C57916"/>
<stop offset="0.7" stop-color="#823B0E"/>
<stop offset="0.71" stop-color="#77300D"/>
<stop offset="0.72" stop-color="#702A0C"/>
<stop offset="0.74" stop-color="#7D360E"/>
<stop offset="0.75" stop-color="#F8AA1C"/>
<stop offset="0.76" stop-color="#BF7415"/>
<stop offset="0.77" stop-color="#A15812"/>
<stop offset="0.78" stop-color="#7A340D"/>
<stop offset="0.79" stop-color="#712B0C"/>
<stop offset="0.8" stop-color="#7D360E"/>
<stop offset="0.81" stop-color="#CE8217"/>
<stop offset="0.82" stop-color="#A85106"/>
<stop offset="0.83" stop-color="#923A00"/>
<stop offset="0.84" stop-color="#9A5000"/>
<stop offset="0.86" stop-color="#FFB01D"/>
<stop offset="0.87" stop-color="#B1580E"/>
<stop offset="0.88" stop-color="#AE550D"/>
<stop offset="0.89" stop-color="#B65E0F"/>
<stop offset="0.9" stop-color="#FFB01D"/>
<stop offset="0.91" stop-color="#B0570D"/>
<stop offset="0.92" stop-color="#AE550D"/>
<stop offset="0.93" stop-color="#AE550D"/>
<stop offset="0.94" stop-color="#C77011"/>
<stop offset="0.95" stop-color="#B0570D"/>
<stop offset="1" stop-color="#AE550D"/>
</linearGradient>
<linearGradient id="paint1_linear_1752_51892" x1="125.771" y1="-18.2052" x2="246.631" y2="479.845" gradientUnits="userSpaceOnUse">
<stop stop-color="#FFBC04"/>
<stop offset="0.06" stop-color="#FFC107"/>
<stop offset="0.13" stop-color="#FFD010"/>
<stop offset="0.2" stop-color="#FFE81E"/>
<stop offset="0.26" stop-color="#FFFC29"/>
<stop offset="0.31" stop-color="#FFE019"/>
<stop offset="0.35" stop-color="#FFCC0D"/>
<stop offset="0.4" stop-color="#FFC006"/>
<stop offset="0.44" stop-color="#FFBC04"/>
<stop offset="0.6" stop-color="#FFB404"/>
<stop offset="0.65" stop-color="#D88D05"/>
<stop offset="0.74" stop-color="#9B5007"/>
<stop offset="0.76" stop-color="#9F5407"/>
<stop offset="0.78" stop-color="#AA5F07"/>
<stop offset="0.8" stop-color="#BD7107"/>
<stop offset="0.82" stop-color="#E39606"/>
<stop offset="0.92" stop-color="#FFBC04"/>
<stop offset="1" stop-color="#E99602"/>
</linearGradient>
<linearGradient id="paint2_linear_1752_51892" x1="63.2462" y1="22.2794" x2="276.563" y2="294.137" gradientUnits="userSpaceOnUse">
<stop stop-color="#FFB234"/>
<stop offset="0.08" stop-color="#FFD53B"/>
<stop offset="0.18" stop-color="#FBAB35"/>
<stop offset="0.2" stop-color="#EA9033"/>
<stop offset="0.22" stop-color="#DE7D31"/>
<stop offset="0.24" stop-color="#D7722F"/>
<stop offset="0.26" stop-color="#D56E2F"/>
<stop offset="0.36" stop-color="#F0AB39"/>
<stop offset="0.4" stop-color="#FFCD3E"/>
<stop offset="0.56" stop-color="#FFD53B"/>
<stop offset="0.62" stop-color="#FFD93E"/>
<stop offset="0.67" stop-color="#FFE546"/>
<stop offset="0.73" stop-color="#FFF953"/>
<stop offset="0.74" stop-color="#FFFF57"/>
<stop offset="0.83" stop-color="#FFE948"/>
<stop offset="0.92" stop-color="#FFDA3E"/>
<stop offset="1" stop-color="#FFD53B"/>
</linearGradient>
<linearGradient id="paint3_linear_1752_51892" x1="84.1783" y1="48.9739" x2="255.605" y2="267.445" gradientUnits="userSpaceOnUse">
<stop stop-color="#CB6E10"/>
<stop offset="0.06" stop-color="#CF7311"/>
<stop offset="0.13" stop-color="#DB8214"/>
<stop offset="0.2" stop-color="#EE9A19"/>
<stop offset="0.26" stop-color="#FDAE1D"/>
<stop offset="0.31" stop-color="#E79217"/>
<stop offset="0.35" stop-color="#D87E13"/>
<stop offset="0.4" stop-color="#CE7211"/>
<stop offset="0.44" stop-color="#CB6E10"/>
<stop offset="0.6" stop-color="#D36812"/>
<stop offset="0.65" stop-color="#AB4F10"/>
<stop offset="0.74" stop-color="#6E280C"/>
<stop offset="0.76" stop-color="#722B0C"/>
<stop offset="0.78" stop-color="#7D340D"/>
<stop offset="0.8" stop-color="#90420E"/>
<stop offset="0.82" stop-color="#A9550F"/>
<stop offset="0.92" stop-color="#CB6E10"/>
<stop offset="1" stop-color="#AE550D"/>
</linearGradient>
<linearGradient id="paint4_linear_1752_51892" x1="111.178" y1="78.6483" x2="233.206" y2="234.164" gradientUnits="userSpaceOnUse">
<stop stop-color="#CB6E10"/>
<stop offset="0.06" stop-color="#CF7311"/>
<stop offset="0.13" stop-color="#DB8214"/>
<stop offset="0.2" stop-color="#EE9A19"/>
<stop offset="0.26" stop-color="#FDAE1D"/>
<stop offset="0.31" stop-color="#E79217"/>
<stop offset="0.35" stop-color="#D87E13"/>
<stop offset="0.4" stop-color="#CE7211"/>
<stop offset="0.44" stop-color="#CB6E10"/>
<stop offset="0.6" stop-color="#D36812"/>
<stop offset="0.65" stop-color="#AB4F10"/>
<stop offset="0.74" stop-color="#6E280C"/>
<stop offset="0.76" stop-color="#722B0C"/>
<stop offset="0.78" stop-color="#7D340D"/>
<stop offset="0.8" stop-color="#90420E"/>
<stop offset="0.82" stop-color="#A9550F"/>
<stop offset="0.92" stop-color="#CB6E10"/>
<stop offset="1" stop-color="#AE550D"/>
</linearGradient>
<linearGradient id="paint5_linear_1752_51892" x1="80.5353" y1="191.376" x2="396.939" y2="58.4838" gradientUnits="userSpaceOnUse">
<stop stop-color="#FFE802"/>
<stop offset="0.09" stop-color="#FFEC07"/>
<stop offset="0.2" stop-color="#FFF616"/>
<stop offset="0.26" stop-color="#FFFF22"/>
<stop offset="0.31" stop-color="#FFF312"/>
<stop offset="0.38" stop-color="#FFEB06"/>
<stop offset="0.44" stop-color="#FFE802"/>
<stop offset="0.6" stop-color="#FFDC02"/>
<stop offset="0.67" stop-color="#D58903"/>
<stop offset="0.74" stop-color="#B54B04"/>
<stop offset="0.75" stop-color="#B84F04"/>
<stop offset="0.77" stop-color="#C15A04"/>
<stop offset="0.79" stop-color="#CF6D03"/>
<stop offset="0.81" stop-color="#E48803"/>
<stop offset="0.82" stop-color="#FFAC02"/>
<stop offset="0.92" stop-color="#FFE802"/>
<stop offset="1" stop-color="#FFAC00"/>
</linearGradient>
<radialGradient id="paint6_radial_1752_51892" cx="0" cy="0" r="1" gradientUnits="userSpaceOnUse" gradientTransform="translate(80.6141 104.649) rotate(-21.9149) scale(104.178 16.3126)">
<stop stop-color="white"/>
<stop offset="1"/>
</radialGradient>
<radialGradient id="paint7_radial_1752_51892" cx="0" cy="0" r="1" gradientUnits="userSpaceOnUse" gradientTransform="translate(125.766 111.17) rotate(15.8594) scale(61.0601 9.71096)">
<stop stop-color="white"/>
<stop offset="1"/>
</radialGradient>
</defs>
</svg>
