<svg width="1151" height="384" viewBox="0 0 1151 384" fill="none" xmlns="http://www.w3.org/2000/svg">
<path d="M1105.37 103.05C1089.89 112.657 1074.05 133.437 1063.37 160.545C1052.68 187.653 1049.65 214.697 1053.74 233.943L1055.91 252.113L1071.2 259.518C1092.02 267.788 1121.97 240.663 1138.93 197.652C1155.9 154.641 1153.61 111.695 1134.04 100.147L1117.63 91.9912L1105.37 103.05Z" fill="url(#paint0_linear_1752_51791)"/>
<path d="M1118.27 93.9963C1138.59 103.978 1141.19 147.234 1124.08 190.605C1106.97 233.975 1076.6 261.034 1056.27 251.052C1035.95 241.07 1033.34 197.83 1050.47 154.46C1067.59 111.09 1097.93 84.0141 1118.27 93.9963Z" fill="url(#paint1_linear_1752_51791)"/>
<path d="M1065.52 254.184C1062.02 254.202 1058.57 253.409 1055.43 251.868C1034.06 241.396 1030.8 197.097 1048.15 153.139C1062.83 115.967 1087.67 90.0005 1108.58 90.0005C1112.08 89.9768 1115.54 90.764 1118.68 92.3003C1140.11 102.788 1143.37 147.088 1125.95 191.127C1111.27 228.217 1086.43 254.184 1065.52 254.184ZM1108.58 93.2627C1089.29 93.2627 1065.15 118.952 1051.19 154.33C1034.45 196.738 1036.99 239.146 1056.86 248.932C1059.56 250.245 1062.52 250.92 1065.52 250.906C1084.8 250.906 1108.96 225.216 1122.92 189.822C1139.65 147.414 1137.11 105.006 1117.24 95.2199C1114.54 93.9126 1111.58 93.243 1108.58 93.2627Z" fill="url(#paint2_linear_1752_51791)"/>
<path d="M1069.63 238.053C1066.85 238.069 1064.1 237.438 1061.61 236.209C1044.58 227.858 1042.04 192.317 1056.01 157.005C1067.84 127.042 1087.75 106.132 1104.47 106.132C1107.25 106.105 1110 106.725 1112.5 107.942C1129.53 116.293 1132.07 151.834 1118.09 187.147C1106.27 217.126 1086.29 238.053 1069.63 238.053ZM1104.47 109.394C1089.32 109.394 1070.22 129.913 1059.05 158.195C1045.72 191.975 1047.5 225.656 1063.04 233.225C1065.08 234.217 1067.31 234.73 1069.57 234.725C1084.72 234.725 1103.82 214.19 1114.99 185.924C1128.32 152.144 1126.53 118.463 1111 110.894C1108.97 109.902 1106.73 109.389 1104.47 109.394Z" fill="url(#paint3_linear_1752_51791)"/>
<path d="M1066.99 181.977L1078.15 187.458L1076.89 190.72C1075.92 192.924 1075.17 195.219 1074.66 197.57C1074.53 198.025 1074.56 198.51 1074.75 198.944C1074.94 199.377 1075.27 199.733 1075.69 199.952C1076.05 200.119 1076.46 200.149 1076.84 200.034C1077.22 199.92 1077.55 199.67 1077.76 199.332C1078.69 198.203 1079.41 196.916 1079.88 195.531C1080.9 193.395 1081.39 191.047 1081.33 188.681C1080.53 185.262 1079.44 181.917 1078.07 178.683C1076.77 175.561 1075.73 172.344 1074.94 169.059C1074.52 166.428 1074.52 163.747 1074.94 161.116C1075.54 157.252 1076.6 153.474 1078.1 149.862C1080.81 143.011 1083.89 138.118 1087.35 135.182C1088.86 133.781 1090.69 132.773 1092.68 132.25C1094.67 131.726 1096.76 131.703 1098.77 132.181L1101.6 124.955L1106.76 127.467L1103.81 134.937C1106.85 137.352 1108.82 140.868 1109.29 144.724C1110.15 149.258 1108.91 155.799 1105.52 164.296L1104.03 168.048L1092.88 162.568L1094.74 157.854C1096.1 154.67 1097.26 151.401 1098.19 148.067C1098.46 146.697 1098.15 145.8 1097.26 145.376C1096.9 145.195 1096.48 145.143 1096.08 145.229C1095.68 145.314 1095.32 145.533 1095.06 145.849C1094.13 146.897 1093.42 148.124 1092.97 149.454C1091.68 152.534 1090.63 155.714 1089.84 158.963C1089.55 161.633 1089.97 164.334 1091.05 166.792C1092.5 170.569 1093.75 174.418 1094.8 178.324C1095.36 181.242 1095.46 184.231 1095.1 187.18C1094.66 191.068 1093.7 194.877 1092.22 198.5C1089.96 204.241 1087.24 208.281 1084.07 210.619C1082.53 211.767 1080.74 212.534 1078.84 212.857C1076.95 213.18 1075.01 213.05 1073.17 212.478L1070.76 218.627L1065.62 216.099L1068.04 209.966C1066.5 208.803 1065.23 207.33 1064.31 205.644C1063.38 203.959 1062.82 202.097 1062.65 200.18C1062.36 195.142 1063.29 190.108 1065.34 185.5C1065.77 184.75 1066.27 183.559 1066.99 181.977Z" fill="url(#paint4_linear_1752_51791)"/>
<path d="M1062.8 179.921L1073.97 185.401L1072.72 188.663C1071.75 190.871 1071 193.165 1070.47 195.514C1070.34 195.97 1070.38 196.455 1070.57 196.889C1070.76 197.322 1071.09 197.677 1071.51 197.895C1071.87 198.064 1072.28 198.096 1072.66 197.985C1073.04 197.874 1073.37 197.627 1073.58 197.292C1074.51 196.154 1075.23 194.862 1075.7 193.475C1076.73 191.34 1077.22 188.99 1077.14 186.624C1076.34 183.203 1075.25 179.857 1073.88 176.626C1072.59 173.502 1071.55 170.285 1070.76 167.003C1070.33 164.372 1070.33 161.69 1070.76 159.059C1071.37 155.196 1072.43 151.418 1073.92 147.805C1076.63 140.954 1079.71 136.061 1083.17 133.125C1084.68 131.724 1086.51 130.717 1088.5 130.193C1090.5 129.67 1092.59 129.646 1094.59 130.124L1097.44 122.898L1102.6 125.329L1099.66 132.799C1102.44 134.778 1104.26 138.04 1105.14 142.585C1106.02 147.131 1104.77 153.655 1101.38 162.158L1099.89 165.91L1088.73 160.429L1090.58 155.716C1091.95 152.535 1093.11 149.266 1094.04 145.929C1094.3 144.575 1094.04 143.662 1093.11 143.238C1092.74 143.055 1092.32 143.004 1091.92 143.093C1091.52 143.182 1091.16 143.406 1090.9 143.727C1089.98 144.772 1089.28 145.993 1088.83 147.316C1087.52 150.39 1086.47 153.571 1085.7 156.825C1085.41 159.494 1085.82 162.193 1086.89 164.654C1088.34 168.429 1089.6 172.278 1090.64 176.185C1091.21 179.103 1091.31 182.093 1090.94 185.042C1090.52 188.931 1089.56 192.741 1088.08 196.362C1085.82 202.103 1083.1 206.143 1079.93 208.481C1078.39 209.63 1076.6 210.397 1074.71 210.721C1072.82 211.044 1070.88 210.914 1069.05 210.34L1066.72 216.522L1061.53 213.961L1063.96 207.828C1062.43 206.664 1061.16 205.192 1060.23 203.506C1059.3 201.82 1058.74 199.959 1058.58 198.042C1058.28 193.004 1059.21 187.969 1061.27 183.362C1061.58 182.693 1062.1 181.503 1062.8 179.921Z" fill="url(#paint5_linear_1752_51791)"/>
<path d="M250.847 38.0758C248.095 30.5037 240.865 22.0316 230.764 15.4562C220.663 8.88089 209.937 5.74197 201.896 6.32215L194.458 6.10645L190.367 12.4735C185.443 21.2804 194.22 36.5286 210.316 46.9421C226.412 57.3556 243.885 59.1631 249.947 51.1521L254.41 44.3239L250.847 38.0758Z" fill="url(#paint6_linear_1752_51791)"/>
<path d="M253.472 44.406C247.983 52.8706 230.414 51.2194 214.199 40.6869C197.983 30.1544 189.311 14.802 194.8 6.33734C200.289 -2.12732 217.858 -0.483485 234.074 10.0564C250.289 20.5963 258.962 35.9413 253.472 44.406Z" fill="url(#paint7_linear_1752_51791)"/>
<path d="M240.543 50.602C232.473 50.602 222.736 47.292 213.825 41.52C205.911 36.3876 199.529 29.909 195.847 23.2815C192.091 16.5053 191.592 10.354 194.449 5.95055C196.918 2.13476 201.775 0 208.113 0C216.183 0 225.92 3.30999 234.831 9.08203C251.306 19.8005 259.994 35.7851 254.207 44.711C251.73 48.5044 246.88 50.602 240.543 50.602ZM208.113 1.50995C202.296 1.50995 197.885 3.3695 195.698 6.71668C193.154 10.6292 193.675 16.245 197.149 22.5154C200.712 28.9346 206.923 35.2273 214.636 40.2257C223.309 45.849 232.755 49.0697 240.543 49.0697C246.36 49.0697 250.771 47.2102 252.957 43.863C258.306 35.6141 249.804 20.5815 234.02 10.3465C225.347 4.74557 215.938 1.52483 208.113 1.52483V1.50995Z" fill="url(#paint8_linear_1752_51791)"/>
<path d="M237.509 45.596C231.023 45.596 223.168 42.9182 215.938 38.2396C202.683 29.6485 195.662 16.8697 200.318 9.7439C202.281 6.71656 206.142 5.04297 211.17 5.04297C217.664 5.04297 225.518 7.72815 232.741 12.3993C245.988 20.9904 253.01 33.7693 248.361 40.895C246.39 43.967 242.537 45.596 237.509 45.596ZM211.148 6.53061C206.64 6.53061 203.226 7.95874 201.545 10.5547C197.372 16.9887 204.201 28.8526 216.756 36.9974C223.733 41.5124 231.298 44.1083 237.501 44.1083C242.016 44.1083 245.43 42.6802 247.111 40.0917C251.284 33.6502 244.456 21.7938 231.893 13.649C224.923 9.12653 217.359 6.53061 211.148 6.53061Z" fill="url(#paint9_linear_1752_51791)"/>
<path d="M221.808 15.7023L218.796 20.3586L217.606 19.6148C216.794 19.0312 215.924 18.5327 215.01 18.1271C214.829 18.0431 214.624 18.0285 214.433 18.0861C214.243 18.1437 214.08 18.2695 213.976 18.4395C213.889 18.5906 213.851 18.7651 213.869 18.9386C213.886 19.1121 213.957 19.2757 214.073 19.4065C214.455 19.886 214.921 20.2918 215.449 20.6041C216.225 21.1793 217.138 21.5409 218.097 21.6528C219.537 21.5191 220.962 21.2502 222.351 20.8495C223.696 20.4845 225.07 20.2357 226.457 20.1057C227.544 20.0865 228.624 20.2629 229.648 20.6264C231.168 21.1525 232.611 21.8778 233.94 22.7834C236.499 24.4397 238.249 26.1406 239.192 27.886C239.651 28.6911 239.923 29.5893 239.987 30.5139C240.052 31.4385 239.907 32.3658 239.563 33.2267L242.264 34.9821L240.88 37.1168L238.083 35.3094C237.53 35.8892 236.864 36.3495 236.125 36.6617C235.387 36.9738 234.593 37.1313 233.791 37.1243C231.902 37.2185 229.358 36.2267 226.16 34.149L224.761 33.2415L227.774 28.5927L229.529 29.7307C230.716 30.547 231.958 31.2778 233.248 31.9175C233.777 32.1258 234.163 32.044 234.401 31.6795C234.506 31.5304 234.563 31.3524 234.563 31.17C234.563 30.9876 234.506 30.8096 234.401 30.6605C234.059 30.1825 233.618 29.7841 233.107 29.4927C231.972 28.7091 230.767 28.0319 229.507 27.4695C228.452 27.1503 227.326 27.1503 226.271 27.4695C224.654 27.8703 223.015 28.1807 221.362 28.3993C220.15 28.4605 218.937 28.3095 217.777 27.953C216.234 27.506 214.768 26.8236 213.433 25.9298C211.291 24.5413 209.865 23.0537 209.156 21.4669C208.804 20.6785 208.624 19.8235 208.631 18.9599C208.637 18.0963 208.829 17.2441 209.193 16.461L206.902 14.9733L208.286 12.8386L210.584 14.3262C211.128 13.7308 211.797 13.2627 212.543 12.9554C213.288 12.6482 214.093 12.5092 214.898 12.5485C216.951 12.7551 218.911 13.502 220.581 14.713C220.782 14.9585 221.228 15.256 221.808 15.7023Z" fill="url(#paint10_linear_1752_51791)"/>
<path d="M222.936 13.9308L219.924 18.5871L218.734 17.8433C217.924 17.2567 217.053 16.758 216.138 16.3557C215.957 16.2716 215.752 16.257 215.561 16.3146C215.371 16.3723 215.208 16.4981 215.104 16.6681C215.015 16.8184 214.976 16.9934 214.993 17.1675C215.011 17.3415 215.083 17.5054 215.201 17.635C215.581 18.1163 216.047 18.5224 216.577 18.8326C217.347 19.425 218.261 19.8023 219.225 19.926C220.665 19.7923 222.089 19.5233 223.479 19.1227C224.825 18.7624 226.198 18.5136 227.585 18.3789C228.672 18.3665 229.752 18.5453 230.776 18.907C232.294 19.4332 233.737 20.1559 235.068 21.0566C237.627 22.7228 239.362 24.4236 240.275 26.1592C240.737 26.9644 241.011 27.8637 241.077 28.7898C241.143 29.7159 240.998 30.6449 240.654 31.5073L243.354 33.2552L241.971 35.3677L239.211 33.5528C238.652 34.1334 237.98 34.5944 237.237 34.9077C236.494 35.2209 235.696 35.38 234.889 35.3751C233 35.4693 230.456 34.4776 227.258 32.3998L225.852 31.4924L228.872 26.8435L230.627 27.9816C231.815 28.7957 233.058 29.5264 234.346 30.1684C234.882 30.3767 235.269 30.2948 235.507 29.9304C235.612 29.7812 235.668 29.6033 235.668 29.4208C235.668 29.2384 235.612 29.0605 235.507 28.9113C235.159 28.4352 234.716 28.0374 234.205 27.7435C233.073 26.9589 231.87 26.2815 230.612 25.7203C229.557 25.4042 228.432 25.4042 227.377 25.7203C225.759 26.1226 224.12 26.4354 222.468 26.6576C221.256 26.7188 220.042 26.5678 218.882 26.2113C217.339 25.7643 215.874 25.0819 214.539 24.1881C212.396 22.7996 210.971 21.312 210.262 19.7252C209.909 18.9367 209.73 18.0818 209.736 17.2182C209.743 16.3546 209.935 15.5024 210.299 14.7193L208.008 13.2316L209.391 11.0894L211.682 12.5771C212.228 11.9819 212.898 11.5141 213.645 11.2068C214.392 10.8996 215.197 10.7605 216.004 10.7993C218.052 11.0065 220.01 11.7505 221.679 12.9564C221.887 13.2019 222.349 13.5143 222.936 13.9308Z" fill="url(#paint11_linear_1752_51791)"/>
<path d="M951.461 367.961C953.843 361.406 960.102 354.072 968.846 348.38C977.591 342.688 986.876 339.971 993.836 340.473L1000.28 340.286L1003.82 345.798C1008.08 353.422 1000.48 366.622 986.547 375.636C972.613 384.651 957.488 386.216 952.24 379.281L948.377 373.37L951.461 367.961Z" fill="url(#paint12_linear_1752_51791)"/>
<path d="M949.189 373.441C953.941 380.768 969.15 379.339 983.187 370.221C997.224 361.104 1004.73 347.813 999.98 340.486C995.228 333.158 980.019 334.581 965.982 343.705C951.945 352.829 944.437 366.113 949.189 373.441Z" fill="url(#paint13_linear_1752_51791)"/>
<path d="M960.379 378.805C967.365 378.805 975.794 375.939 983.508 370.943C990.359 366.5 995.884 360.891 999.071 355.154C1002.32 349.288 1002.75 343.963 1000.28 340.151C998.144 336.848 993.939 335 988.453 335C981.467 335 973.038 337.865 965.324 342.862C951.062 352.141 943.541 365.978 948.551 373.705C950.695 376.989 954.893 378.805 960.379 378.805ZM988.453 336.307C993.489 336.307 997.307 337.917 999.2 340.814C1001.4 344.201 1000.95 349.063 997.944 354.491C994.86 360.048 989.483 365.495 982.806 369.822C975.298 374.69 967.121 377.478 960.379 377.478C955.344 377.478 951.525 375.869 949.632 372.971C945.003 365.83 952.362 352.817 966.026 343.957C973.534 339.108 981.679 336.32 988.453 336.32V336.307Z" fill="url(#paint14_linear_1752_51791)"/>
<path d="M963.008 374.471C968.623 374.471 975.423 372.153 981.682 368.103C993.156 360.666 999.234 349.603 995.204 343.435C993.504 340.814 990.162 339.365 985.809 339.365C980.188 339.365 973.388 341.69 967.136 345.733C955.668 353.171 949.589 364.233 953.614 370.401C955.32 373.061 958.656 374.471 963.008 374.471ZM985.828 340.653C989.73 340.653 992.686 341.889 994.141 344.137C997.753 349.706 991.842 359.977 980.973 367.027C974.934 370.936 968.385 373.183 963.015 373.183C959.106 373.183 956.151 371.947 954.696 369.706C951.083 364.13 956.994 353.866 967.87 346.815C973.903 342.9 980.452 340.653 985.828 340.653Z" fill="url(#paint15_linear_1752_51791)"/>
<path d="M976.6 348.593L979.208 352.624L980.238 351.98C980.941 351.475 981.694 351.043 982.485 350.692C982.642 350.62 982.819 350.607 982.984 350.657C983.15 350.707 983.29 350.816 983.38 350.963C983.456 351.094 983.488 351.245 983.473 351.395C983.458 351.545 983.396 351.687 983.297 351.8C982.966 352.215 982.562 352.566 982.105 352.837C981.434 353.334 980.644 353.648 979.813 353.744C978.566 353.629 977.333 353.396 976.13 353.049C974.966 352.733 973.777 352.518 972.576 352.405C971.635 352.389 970.7 352.541 969.813 352.856C968.498 353.311 967.248 353.939 966.098 354.723C963.883 356.157 962.368 357.629 961.552 359.14C961.154 359.837 960.919 360.615 960.863 361.415C960.807 362.216 960.933 363.018 961.23 363.764L958.893 365.283L960.09 367.131L962.511 365.566C962.99 366.068 963.567 366.467 964.206 366.737C964.845 367.007 965.533 367.144 966.227 367.138C967.862 367.219 970.064 366.361 972.833 364.562L974.044 363.776L971.436 359.752L969.916 360.737C968.889 361.444 967.814 362.076 966.697 362.63C966.24 362.811 965.905 362.74 965.699 362.424C965.608 362.295 965.559 362.141 965.559 361.983C965.559 361.825 965.608 361.671 965.699 361.542C965.995 361.128 966.377 360.783 966.819 360.531C967.802 359.853 968.845 359.267 969.936 358.78C970.849 358.503 971.823 358.503 972.737 358.78C974.137 359.127 975.556 359.395 976.986 359.585C978.036 359.638 979.086 359.507 980.09 359.198C981.426 358.811 982.695 358.221 983.85 357.447C985.705 356.245 986.939 354.957 987.553 353.583C987.858 352.901 988.013 352.161 988.008 351.413C988.002 350.666 987.836 349.928 987.521 349.25L989.504 347.962L988.306 346.114L986.317 347.402C985.846 346.887 985.267 346.481 984.621 346.215C983.976 345.949 983.279 345.829 982.582 345.863C980.805 346.042 979.108 346.688 977.663 347.737C977.489 347.949 977.102 348.207 976.6 348.593Z" fill="url(#paint16_linear_1752_51791)"/>
<path d="M975.624 347.059L978.232 351.09L979.262 350.446C979.963 349.938 980.716 349.507 981.509 349.158C981.665 349.085 981.843 349.073 982.008 349.123C982.173 349.173 982.314 349.282 982.404 349.429C982.481 349.559 982.515 349.71 982.5 349.861C982.485 350.012 982.422 350.153 982.32 350.266C981.991 350.682 981.587 351.034 981.129 351.302C980.462 351.815 979.671 352.142 978.837 352.249C977.59 352.133 976.357 351.9 975.154 351.554C973.989 351.242 972.8 351.026 971.599 350.91C970.659 350.899 969.724 351.054 968.837 351.367C967.523 351.822 966.274 352.448 965.122 353.228C962.907 354.67 961.404 356.142 960.614 357.645C960.214 358.342 959.977 359.12 959.92 359.922C959.863 360.724 959.988 361.528 960.286 362.275L957.949 363.788L959.146 365.616L961.535 364.045C962.019 364.548 962.601 364.947 963.244 365.218C963.887 365.489 964.578 365.627 965.276 365.623C966.912 365.704 969.114 364.846 971.883 363.047L973.1 362.262L970.485 358.237L968.966 359.222C967.938 359.927 966.862 360.56 965.746 361.116C965.283 361.296 964.948 361.225 964.742 360.909C964.651 360.78 964.602 360.626 964.602 360.468C964.602 360.31 964.651 360.156 964.742 360.027C965.042 359.615 965.426 359.271 965.869 359.016C966.849 358.337 967.89 357.751 968.979 357.265C969.892 356.991 970.866 356.991 971.78 357.265C973.18 357.613 974.599 357.884 976.029 358.076C977.079 358.129 978.129 357.999 979.133 357.69C980.469 357.303 981.737 356.712 982.893 355.939C984.748 354.737 985.982 353.449 986.596 352.075C986.901 351.393 987.056 350.653 987.05 349.905C987.045 349.157 986.879 348.42 986.564 347.742L988.547 346.454L987.349 344.599L985.366 345.887C984.893 345.372 984.313 344.967 983.667 344.701C983.02 344.435 982.323 344.315 981.625 344.348C979.851 344.528 978.157 345.172 976.712 346.216C976.532 346.428 976.132 346.699 975.624 347.059Z" fill="url(#paint17_linear_1752_51791)"/>
<path d="M151.021 260.514C154.695 237.15 147.16 209.245 128.464 185.447C109.767 161.65 84.4346 147.666 60.9163 145.682L33.6617 146.767L19.0577 158.332C-7.87126 181.804 -6.13489 230.127 23.4607 267.847C53.0562 305.566 99.6123 318.728 128.774 298.155L143.502 286.714L151.021 260.514Z" fill="url(#paint18_linear_1752_51791)"/>
<path d="M141.04 286.607C112.793 308.761 65.6632 295.909 35.7731 257.772C5.88296 219.634 4.5342 170.845 32.781 148.676C61.0278 126.506 108.157 139.374 138.048 177.512C167.938 215.649 169.271 264.438 141.04 286.607Z" fill="url(#paint19_linear_1752_51791)"/>
<path d="M107.586 299.039C81.7113 299.039 53.6661 283.8 34.3956 259.243C19.7762 240.639 11.4975 218.779 11.1409 197.742C10.7843 176.704 18.3964 158.72 32.6593 147.527C42.6621 139.854 54.9678 135.794 67.5724 136.008C93.4472 136.008 121.492 151.263 140.747 175.805C171.041 214.408 171.847 264.514 142.53 287.521C132.519 295.2 120.201 299.26 107.586 299.039ZM67.5414 139.109C55.6302 138.899 43.9981 142.724 34.5352 149.961C21.0629 160.55 13.8385 177.495 14.2105 197.695C14.5826 217.896 22.6287 239.228 36.8451 257.336C55.449 281.149 82.6415 295.939 107.586 295.939C119.493 296.152 131.122 292.327 140.577 285.087C168.483 263.134 167.521 214.966 138.282 177.712C119.586 153.899 92.486 139.109 67.5414 139.109Z" fill="url(#paint20_linear_1752_51791)"/>
<path d="M104.166 282.839C83.4382 282.839 60.8811 270.437 45.2539 250.67C20.9139 219.664 20.0612 179.557 43.347 161.279C51.2344 155.239 60.9321 152.043 70.8651 152.209C91.5928 152.209 114.15 164.612 129.777 184.378C141.529 199.339 148.21 216.827 148.629 233.632C149.048 250.437 143.048 264.855 131.653 273.77C123.774 279.803 114.088 282.999 104.166 282.839ZM70.9271 155.31C61.6871 155.145 52.6622 158.106 45.3159 163.713C23.3789 180.937 24.4796 219.09 47.7499 248.763C62.757 267.863 84.3684 279.769 104.166 279.769C113.406 279.935 122.431 276.974 129.777 271.367C140.335 263.073 145.931 249.662 145.544 233.741C145.156 217.819 138.676 200.765 127.343 186.316C112.352 167.185 90.7247 155.31 70.9271 155.31Z" fill="url(#paint21_linear_1752_51791)"/>
<path d="M94.976 188.238L79.4729 200.408L77.2714 197.618C75.8452 195.565 74.1209 193.736 72.1554 192.192C71.6201 191.882 70.9979 191.757 70.3844 191.835C69.771 191.914 69.2003 192.191 68.7602 192.626C68.3163 192.944 67.9697 193.379 67.7589 193.883C67.5481 194.387 67.4815 194.939 67.5664 195.478C67.8937 197.013 68.6089 198.438 69.6439 199.618C71.7213 202.269 73.6592 203.726 75.473 204.021C79.8786 204.292 84.2997 204.162 88.6817 203.633C92.9132 203.174 97.1743 203.05 101.425 203.261C104.35 203.657 107.153 204.684 109.642 206.269C113.082 208.452 116.089 211.254 118.51 214.532C123.243 220.547 125.615 226.309 125.626 231.818C125.636 237.327 123.306 242.577 118.634 247.569L123.626 253.925L116.479 259.522L111.332 252.964C106.883 255.763 101.604 256.941 96.3868 256.297C90.909 255.708 85.2245 251.652 79.3333 244.127L76.7443 240.841L92.2475 228.655L95.5031 232.795C97.5966 235.72 99.9808 238.426 102.619 240.872C103.14 241.286 103.793 241.497 104.457 241.466C105.122 241.434 105.752 241.163 106.231 240.701C106.713 240.373 107.1 239.924 107.354 239.398C107.607 238.873 107.717 238.29 107.673 237.709C107.433 236.221 106.771 234.833 105.766 233.709C103.739 230.893 101.352 228.355 98.6658 226.159C96.8881 224.909 93.8288 224.438 89.4879 224.748C84.4203 225.18 79.3326 225.33 74.2483 225.198C70.9253 224.885 67.7042 223.882 64.7914 222.252C61.2018 220.304 58.068 217.614 55.598 214.361C51.6292 209.328 49.836 204.341 50.2184 199.401C50.6008 194.46 53.1485 189.603 57.8614 184.828L53.6291 179.448L60.776 173.836L64.9929 179.231C70.3157 176.13 75.2715 175.066 79.8604 176.037C84.4494 177.009 88.7076 179.98 92.6351 184.952C93.1777 185.649 93.9528 186.75 94.976 188.238Z" fill="url(#paint22_linear_1752_51791)"/>
<path d="M100.774 183.68L85.2712 195.85L83.0697 193.06C81.6396 191.005 79.9099 189.176 77.9382 187.633C77.406 187.322 76.7858 187.196 76.1744 187.275C75.563 187.353 74.9948 187.632 74.5585 188.068C74.1133 188.384 73.7656 188.819 73.5547 189.324C73.3437 189.828 73.2779 190.381 73.3647 190.92C73.6893 192.456 74.4049 193.882 75.4422 195.059C77.5093 197.695 79.4523 199.163 81.2714 199.462C85.6821 199.734 90.1083 199.604 94.4956 199.075C98.7218 198.616 102.978 198.491 107.224 198.703C110.153 199.099 112.961 200.125 115.456 201.71C118.893 203.892 121.899 206.688 124.324 209.958C128.975 215.989 131.424 221.74 131.44 227.26C131.455 232.779 129.145 238.019 124.448 243.011L129.44 249.367L122.355 254.979L117.208 248.406C112.741 251.218 107.438 252.396 102.201 251.739C96.7229 251.15 91.0384 247.093 85.1472 239.569L82.5736 236.267L98.0768 224.097L101.317 228.236C103.41 231.153 105.783 233.858 108.402 236.313C108.925 236.729 109.581 236.94 110.248 236.909C110.915 236.878 111.548 236.605 112.03 236.143C112.511 235.814 112.897 235.364 113.15 234.839C113.403 234.314 113.514 233.732 113.471 233.151C113.231 231.663 112.569 230.275 111.565 229.151C109.535 226.356 107.154 223.834 104.48 221.647C102.712 220.392 99.6426 219.927 95.3017 220.237C90.2289 220.668 85.1361 220.818 80.0466 220.686C76.7289 220.371 73.5133 219.368 70.6052 217.741C67.0109 215.793 63.8718 213.103 61.3963 209.85C57.4378 204.816 55.6446 199.829 56.0167 194.889C56.3888 189.949 58.9416 185.091 63.6752 180.316L59.4429 174.936L66.5744 169.324L70.8067 174.719C76.1295 171.619 81.0853 170.554 85.6743 171.526C90.2632 172.497 94.5162 175.469 98.4334 180.44C98.9915 181.091 99.7666 182.176 100.774 183.68Z" fill="url(#paint23_linear_1752_51791)"/>
<path style="mix-blend-mode:screen" d="M124.834 167.635C129.268 171.868 105.889 186.115 72.604 199.479C39.3187 212.843 8.7464 220.269 4.29699 216.052C-0.152417 211.835 23.2264 197.588 56.5117 184.208C89.797 170.829 120.385 163.434 124.834 167.635Z" fill="url(#paint24_radial_1752_51791)"/>
<path style="mix-blend-mode:screen" d="M101.376 202.472C98.833 205.293 80.2912 202.813 59.9511 196.937C39.6109 191.062 25.2084 184.039 27.782 181.217C30.3555 178.395 48.8663 180.891 69.191 186.752C89.5156 192.612 103.918 199.666 101.376 202.472Z" fill="url(#paint25_radial_1752_51791)"/>
<defs>
<linearGradient id="paint0_linear_1752_51791" x1="1062.08" y1="261.215" x2="1135.83" y2="94.9089" gradientUnits="userSpaceOnUse">
<stop stop-color="#68180B"/>
<stop offset="0.02" stop-color="#68180B"/>
<stop offset="0.03" stop-color="#80260E"/>
<stop offset="0.04" stop-color="#952E10"/>
<stop offset="0.05" stop-color="#83220E"/>
<stop offset="0.06" stop-color="#83220E"/>
<stop offset="0.07" stop-color="#A33B12"/>
<stop offset="0.08" stop-color="#6A190B"/>
<stop offset="0.1" stop-color="#7C240D"/>
<stop offset="0.11" stop-color="#902E10"/>
<stop offset="0.12" stop-color="#6D180C"/>
<stop offset="0.14" stop-color="#943011"/>
<stop offset="0.15" stop-color="#A33912"/>
<stop offset="0.16" stop-color="#6B170C"/>
<stop offset="0.19" stop-color="#6B170C"/>
<stop offset="0.21" stop-color="#9A3411"/>
<stop offset="0.22" stop-color="#6B170C"/>
<stop offset="0.25" stop-color="#6B170C"/>
<stop offset="0.27" stop-color="#992F11"/>
<stop offset="0.28" stop-color="#76170D"/>
<stop offset="0.29" stop-color="#74160D"/>
<stop offset="0.32" stop-color="#A93A13"/>
<stop offset="0.33" stop-color="#88240F"/>
<stop offset="0.34" stop-color="#76170D"/>
<stop offset="0.35" stop-color="#74160D"/>
<stop offset="0.37" stop-color="#74160D"/>
<stop offset="0.38" stop-color="#A93A13"/>
<stop offset="0.39" stop-color="#992F11"/>
<stop offset="0.4" stop-color="#76170D"/>
<stop offset="0.41" stop-color="#74160D"/>
<stop offset="0.44" stop-color="#A93A13"/>
<stop offset="0.45" stop-color="#CA5017"/>
<stop offset="0.46" stop-color="#76170D"/>
<stop offset="0.47" stop-color="#74160D"/>
<stop offset="0.5" stop-color="#74160D"/>
<stop offset="0.51" stop-color="#E6631A"/>
<stop offset="0.52" stop-color="#992F11"/>
<stop offset="0.53" stop-color="#7D1C0E"/>
<stop offset="0.54" stop-color="#76170D"/>
<stop offset="0.55" stop-color="#74160D"/>
<stop offset="0.57" stop-color="#E6631A"/>
<stop offset="0.58" stop-color="#6C240D"/>
<stop offset="0.59" stop-color="#3A0907"/>
<stop offset="0.6" stop-color="#330606"/>
<stop offset="0.61" stop-color="#310506"/>
<stop offset="0.62" stop-color="#A84313"/>
<stop offset="0.63" stop-color="#79310E"/>
<stop offset="0.64" stop-color="#140303"/>
<stop offset="0.65" stop-color="#0F0102"/>
<stop offset="0.67" stop-color="#1C0804"/>
<stop offset="0.68" stop-color="#6D2C0D"/>
<stop offset="0.69" stop-color="#AA4813"/>
<stop offset="0.7" stop-color="#321206"/>
<stop offset="0.71" stop-color="#160503"/>
<stop offset="0.72" stop-color="#0F0202"/>
<stop offset="0.74" stop-color="#2F1106"/>
<stop offset="0.75" stop-color="#C95617"/>
<stop offset="0.76" stop-color="#82360F"/>
<stop offset="0.77" stop-color="#401808"/>
<stop offset="0.78" stop-color="#190703"/>
<stop offset="0.79" stop-color="#100202"/>
<stop offset="0.8" stop-color="#1C0804"/>
<stop offset="0.81" stop-color="#984011"/>
<stop offset="0.82" stop-color="#521B0B"/>
<stop offset="0.83" stop-color="#220406"/>
<stop offset="0.84" stop-color="#290705"/>
<stop offset="0.86" stop-color="#E6631A"/>
<stop offset="0.87" stop-color="#4D1108"/>
<stop offset="0.88" stop-color="#400A07"/>
<stop offset="0.89" stop-color="#490F08"/>
<stop offset="0.9" stop-color="#E6631A"/>
<stop offset="0.91" stop-color="#420B07"/>
<stop offset="0.92" stop-color="#400A07"/>
<stop offset="0.93" stop-color="#400A07"/>
<stop offset="0.94" stop-color="#71230C"/>
<stop offset="0.95" stop-color="#440B07"/>
<stop offset="0.96" stop-color="#420B07"/>
<stop offset="1" stop-color="#400A07"/>
</linearGradient>
<linearGradient id="paint1_linear_1752_51791" x1="1023.43" y1="229.479" x2="1203.41" y2="68.7628" gradientUnits="userSpaceOnUse">
<stop stop-color="#E6721A"/>
<stop offset="0.05" stop-color="#E6771A"/>
<stop offset="0.1" stop-color="#E6861A"/>
<stop offset="0.16" stop-color="#E69E1A"/>
<stop offset="0.23" stop-color="#E6C01A"/>
<stop offset="0.26" stop-color="#E6D51A"/>
<stop offset="0.29" stop-color="#E6B21A"/>
<stop offset="0.33" stop-color="#E6961A"/>
<stop offset="0.37" stop-color="#E6821A"/>
<stop offset="0.4" stop-color="#E6761A"/>
<stop offset="0.44" stop-color="#E6721A"/>
<stop offset="0.6" stop-color="#E6691A"/>
<stop offset="0.69" stop-color="#69280C"/>
<stop offset="0.74" stop-color="#2B0705"/>
<stop offset="0.75" stop-color="#2F0905"/>
<stop offset="0.77" stop-color="#3A0F07"/>
<stop offset="0.79" stop-color="#4D1809"/>
<stop offset="0.8" stop-color="#68260C"/>
<stop offset="0.82" stop-color="#913A10"/>
<stop offset="0.89" stop-color="#CA6017"/>
<stop offset="0.92" stop-color="#E6721A"/>
<stop offset="1" stop-color="#9F3C12"/>
</linearGradient>
<linearGradient id="paint2_linear_1752_51791" x1="1052.49" y1="250.556" x2="1121.61" y2="93.5262" gradientUnits="userSpaceOnUse">
<stop stop-color="#E6611A"/>
<stop offset="0.08" stop-color="#E69A1A"/>
<stop offset="0.18" stop-color="#D95818"/>
<stop offset="0.2" stop-color="#B64114"/>
<stop offset="0.21" stop-color="#9B2F11"/>
<stop offset="0.23" stop-color="#88220F"/>
<stop offset="0.25" stop-color="#7D1B0D"/>
<stop offset="0.26" stop-color="#79180D"/>
<stop offset="0.34" stop-color="#B45514"/>
<stop offset="0.4" stop-color="#E6891A"/>
<stop offset="0.56" stop-color="#E69A1A"/>
<stop offset="0.61" stop-color="#E69E1A"/>
<stop offset="0.65" stop-color="#E6AA1B"/>
<stop offset="0.7" stop-color="#E6BE1C"/>
<stop offset="0.74" stop-color="#E6D51E"/>
<stop offset="0.78" stop-color="#E6C61D"/>
<stop offset="0.86" stop-color="#E6AE1B"/>
<stop offset="0.94" stop-color="#E69F1A"/>
<stop offset="1" stop-color="#E69A1A"/>
</linearGradient>
<linearGradient id="paint3_linear_1752_51791" x1="1059.26" y1="235.165" x2="1114.83" y2="108.932" gradientUnits="userSpaceOnUse">
<stop stop-color="#68180B"/>
<stop offset="0.04" stop-color="#6D1B0C"/>
<stop offset="0.09" stop-color="#7C240D"/>
<stop offset="0.14" stop-color="#953210"/>
<stop offset="0.2" stop-color="#B74714"/>
<stop offset="0.25" stop-color="#E2611A"/>
<stop offset="0.26" stop-color="#E6631A"/>
<stop offset="0.28" stop-color="#CB5317"/>
<stop offset="0.31" stop-color="#A83E13"/>
<stop offset="0.34" stop-color="#8C2D0F"/>
<stop offset="0.38" stop-color="#78210D"/>
<stop offset="0.41" stop-color="#6C1A0B"/>
<stop offset="0.44" stop-color="#68180B"/>
<stop offset="0.6" stop-color="#74160D"/>
<stop offset="0.65" stop-color="#4A0E09"/>
<stop offset="0.74" stop-color="#0D0102"/>
<stop offset="0.76" stop-color="#110202"/>
<stop offset="0.79" stop-color="#1C0404"/>
<stop offset="0.81" stop-color="#2F0706"/>
<stop offset="0.82" stop-color="#3B0907"/>
<stop offset="0.92" stop-color="#68180B"/>
<stop offset="1" stop-color="#400A07"/>
</linearGradient>
<linearGradient id="paint4_linear_1752_51791" x1="1066.49" y1="216.605" x2="1106.06" y2="126.722" gradientUnits="userSpaceOnUse">
<stop stop-color="#68180B"/>
<stop offset="0.04" stop-color="#6D1B0C"/>
<stop offset="0.09" stop-color="#7C240D"/>
<stop offset="0.14" stop-color="#953210"/>
<stop offset="0.2" stop-color="#B74714"/>
<stop offset="0.25" stop-color="#E2611A"/>
<stop offset="0.26" stop-color="#E6631A"/>
<stop offset="0.28" stop-color="#CB5317"/>
<stop offset="0.31" stop-color="#A83E13"/>
<stop offset="0.34" stop-color="#8C2D0F"/>
<stop offset="0.38" stop-color="#78210D"/>
<stop offset="0.41" stop-color="#6C1A0B"/>
<stop offset="0.44" stop-color="#68180B"/>
<stop offset="0.6" stop-color="#74160D"/>
<stop offset="0.65" stop-color="#4A0E09"/>
<stop offset="0.74" stop-color="#0D0102"/>
<stop offset="0.76" stop-color="#110202"/>
<stop offset="0.79" stop-color="#1C0404"/>
<stop offset="0.81" stop-color="#2F0706"/>
<stop offset="0.82" stop-color="#3B0907"/>
<stop offset="0.92" stop-color="#68180B"/>
<stop offset="1" stop-color="#400A07"/>
</linearGradient>
<linearGradient id="paint5_linear_1752_51791" x1="1116.01" y1="197.322" x2="1011.87" y2="112.698" gradientUnits="userSpaceOnUse">
<stop stop-color="#E6C81A"/>
<stop offset="0.15" stop-color="#E6CD1A"/>
<stop offset="0.26" stop-color="#E6D51A"/>
<stop offset="0.34" stop-color="#E6CC1A"/>
<stop offset="0.44" stop-color="#E6C81A"/>
<stop offset="0.6" stop-color="#E6AD1A"/>
<stop offset="0.68" stop-color="#84460F"/>
<stop offset="0.74" stop-color="#490808"/>
<stop offset="0.75" stop-color="#4D0A08"/>
<stop offset="0.76" stop-color="#58110A"/>
<stop offset="0.78" stop-color="#6B1B0C"/>
<stop offset="0.79" stop-color="#862A0F"/>
<stop offset="0.8" stop-color="#A93E13"/>
<stop offset="0.82" stop-color="#E6601A"/>
<stop offset="0.88" stop-color="#E6991A"/>
<stop offset="0.92" stop-color="#E6C81A"/>
<stop offset="1" stop-color="#E6611A"/>
</linearGradient>
<linearGradient id="paint6_linear_1752_51791" x1="192.472" y1="10.4694" x2="255.707" y2="51.783" gradientUnits="userSpaceOnUse">
<stop stop-color="#CB6E10"/>
<stop offset="0.02" stop-color="#CB6E10"/>
<stop offset="0.03" stop-color="#D37812"/>
<stop offset="0.04" stop-color="#DF8314"/>
<stop offset="0.05" stop-color="#DA7C12"/>
<stop offset="0.06" stop-color="#DA7C12"/>
<stop offset="0.07" stop-color="#E89317"/>
<stop offset="0.08" stop-color="#CC7010"/>
<stop offset="0.1" stop-color="#D27712"/>
<stop offset="0.11" stop-color="#DC8114"/>
<stop offset="0.12" stop-color="#CE6F10"/>
<stop offset="0.14" stop-color="#DB7F14"/>
<stop offset="0.15" stop-color="#E08615"/>
<stop offset="0.16" stop-color="#CD6D10"/>
<stop offset="0.19" stop-color="#CD6D10"/>
<stop offset="0.21" stop-color="#DD8214"/>
<stop offset="0.22" stop-color="#CD6D10"/>
<stop offset="0.25" stop-color="#CD6D10"/>
<stop offset="0.27" stop-color="#E07C15"/>
<stop offset="0.28" stop-color="#D46A12"/>
<stop offset="0.29" stop-color="#D36812"/>
<stop offset="0.32" stop-color="#D97314"/>
<stop offset="0.33" stop-color="#E07C15"/>
<stop offset="0.34" stop-color="#D46A12"/>
<stop offset="0.35" stop-color="#D36812"/>
<stop offset="0.37" stop-color="#D36812"/>
<stop offset="0.38" stop-color="#D97314"/>
<stop offset="0.39" stop-color="#E07C15"/>
<stop offset="0.4" stop-color="#D46A12"/>
<stop offset="0.41" stop-color="#D36812"/>
<stop offset="0.44" stop-color="#D97314"/>
<stop offset="0.45" stop-color="#F7A31B"/>
<stop offset="0.46" stop-color="#D46A12"/>
<stop offset="0.47" stop-color="#D36812"/>
<stop offset="0.5" stop-color="#D97314"/>
<stop offset="0.51" stop-color="#FFB01D"/>
<stop offset="0.52" stop-color="#E07C15"/>
<stop offset="0.53" stop-color="#D87113"/>
<stop offset="0.54" stop-color="#D46A12"/>
<stop offset="0.55" stop-color="#D36812"/>
<stop offset="0.57" stop-color="#FFB01D"/>
<stop offset="0.58" stop-color="#C1680A"/>
<stop offset="0.59" stop-color="#A84C02"/>
<stop offset="0.6" stop-color="#A34500"/>
<stop offset="0.61" stop-color="#A14300"/>
<stop offset="0.62" stop-color="#CA730D"/>
<stop offset="0.63" stop-color="#BF7315"/>
<stop offset="0.64" stop-color="#7A310D"/>
<stop offset="0.65" stop-color="#70290C"/>
<stop offset="0.67" stop-color="#722C0C"/>
<stop offset="0.68" stop-color="#AB6213"/>
<stop offset="0.69" stop-color="#C57916"/>
<stop offset="0.7" stop-color="#823B0E"/>
<stop offset="0.71" stop-color="#77300D"/>
<stop offset="0.72" stop-color="#702A0C"/>
<stop offset="0.74" stop-color="#7D360E"/>
<stop offset="0.75" stop-color="#F8AA1C"/>
<stop offset="0.76" stop-color="#BF7415"/>
<stop offset="0.77" stop-color="#A15812"/>
<stop offset="0.78" stop-color="#7A340D"/>
<stop offset="0.79" stop-color="#712B0C"/>
<stop offset="0.8" stop-color="#7D360E"/>
<stop offset="0.81" stop-color="#CE8217"/>
<stop offset="0.82" stop-color="#A85106"/>
<stop offset="0.83" stop-color="#923A00"/>
<stop offset="0.84" stop-color="#9A5000"/>
<stop offset="0.86" stop-color="#FFB01D"/>
<stop offset="0.87" stop-color="#B1580E"/>
<stop offset="0.88" stop-color="#AE550D"/>
<stop offset="0.89" stop-color="#B65E0F"/>
<stop offset="0.9" stop-color="#FFB01D"/>
<stop offset="0.91" stop-color="#B0570D"/>
<stop offset="0.92" stop-color="#AE550D"/>
<stop offset="0.93" stop-color="#AE550D"/>
<stop offset="0.94" stop-color="#C77011"/>
<stop offset="0.95" stop-color="#B0570D"/>
<stop offset="1" stop-color="#AE550D"/>
</linearGradient>
<linearGradient id="paint7_linear_1752_51791" x1="204.531" y1="-5.24376" x2="259.703" y2="81.1408" gradientUnits="userSpaceOnUse">
<stop stop-color="#FFBC04"/>
<stop offset="0.06" stop-color="#FFC107"/>
<stop offset="0.13" stop-color="#FFD010"/>
<stop offset="0.2" stop-color="#FFE81E"/>
<stop offset="0.26" stop-color="#FFFC29"/>
<stop offset="0.31" stop-color="#FFE019"/>
<stop offset="0.35" stop-color="#FFCC0D"/>
<stop offset="0.4" stop-color="#FFC006"/>
<stop offset="0.44" stop-color="#FFBC04"/>
<stop offset="0.6" stop-color="#FFB404"/>
<stop offset="0.65" stop-color="#D88D05"/>
<stop offset="0.74" stop-color="#9B5007"/>
<stop offset="0.76" stop-color="#9F5407"/>
<stop offset="0.78" stop-color="#AA5F07"/>
<stop offset="0.8" stop-color="#BD7107"/>
<stop offset="0.82" stop-color="#E39606"/>
<stop offset="0.92" stop-color="#FFBC04"/>
<stop offset="1" stop-color="#E99602"/>
</linearGradient>
<linearGradient id="paint8_linear_1752_51791" x1="194.414" y1="5.95394" x2="254.166" y2="44.6978" gradientUnits="userSpaceOnUse">
<stop stop-color="#FFB234"/>
<stop offset="0.08" stop-color="#FFD53B"/>
<stop offset="0.18" stop-color="#FBAB35"/>
<stop offset="0.2" stop-color="#EA9033"/>
<stop offset="0.22" stop-color="#DE7D31"/>
<stop offset="0.24" stop-color="#D7722F"/>
<stop offset="0.26" stop-color="#D56E2F"/>
<stop offset="0.36" stop-color="#F0AB39"/>
<stop offset="0.4" stop-color="#FFCD3E"/>
<stop offset="0.56" stop-color="#FFD53B"/>
<stop offset="0.62" stop-color="#FFD93E"/>
<stop offset="0.67" stop-color="#FFE546"/>
<stop offset="0.73" stop-color="#FFF953"/>
<stop offset="0.74" stop-color="#FFFF57"/>
<stop offset="0.83" stop-color="#FFE948"/>
<stop offset="0.92" stop-color="#FFDA3E"/>
<stop offset="1" stop-color="#FFD53B"/>
</linearGradient>
<linearGradient id="paint9_linear_1752_51791" x1="200.262" y1="9.74564" x2="248.318" y2="40.9058" gradientUnits="userSpaceOnUse">
<stop stop-color="#CB6E10"/>
<stop offset="0.06" stop-color="#CF7311"/>
<stop offset="0.13" stop-color="#DB8214"/>
<stop offset="0.2" stop-color="#EE9A19"/>
<stop offset="0.26" stop-color="#FDAE1D"/>
<stop offset="0.31" stop-color="#E79217"/>
<stop offset="0.35" stop-color="#D87E13"/>
<stop offset="0.4" stop-color="#CE7211"/>
<stop offset="0.44" stop-color="#CB6E10"/>
<stop offset="0.6" stop-color="#D36812"/>
<stop offset="0.65" stop-color="#AB4F10"/>
<stop offset="0.74" stop-color="#6E280C"/>
<stop offset="0.76" stop-color="#722B0C"/>
<stop offset="0.78" stop-color="#7D340D"/>
<stop offset="0.8" stop-color="#90420E"/>
<stop offset="0.82" stop-color="#A9550F"/>
<stop offset="0.92" stop-color="#CB6E10"/>
<stop offset="1" stop-color="#AE550D"/>
</linearGradient>
<linearGradient id="paint10_linear_1752_51791" x1="207.491" y1="13.9267" x2="241.554" y2="36.014" gradientUnits="userSpaceOnUse">
<stop stop-color="#CB6E10"/>
<stop offset="0.06" stop-color="#CF7311"/>
<stop offset="0.13" stop-color="#DB8214"/>
<stop offset="0.2" stop-color="#EE9A19"/>
<stop offset="0.26" stop-color="#FDAE1D"/>
<stop offset="0.31" stop-color="#E79217"/>
<stop offset="0.35" stop-color="#D87E13"/>
<stop offset="0.4" stop-color="#CE7211"/>
<stop offset="0.44" stop-color="#CB6E10"/>
<stop offset="0.6" stop-color="#D36812"/>
<stop offset="0.65" stop-color="#AB4F10"/>
<stop offset="0.74" stop-color="#6E280C"/>
<stop offset="0.76" stop-color="#722B0C"/>
<stop offset="0.78" stop-color="#7D340D"/>
<stop offset="0.8" stop-color="#90420E"/>
<stop offset="0.82" stop-color="#A9550F"/>
<stop offset="0.92" stop-color="#CB6E10"/>
<stop offset="1" stop-color="#AE550D"/>
</linearGradient>
<linearGradient id="paint11_linear_1752_51791" x1="212.314" y1="35.222" x2="253.401" y2="-1.38816" gradientUnits="userSpaceOnUse">
<stop stop-color="#FFE802"/>
<stop offset="0.09" stop-color="#FFEC07"/>
<stop offset="0.2" stop-color="#FFF616"/>
<stop offset="0.26" stop-color="#FFFF22"/>
<stop offset="0.31" stop-color="#FFF312"/>
<stop offset="0.38" stop-color="#FFEB06"/>
<stop offset="0.44" stop-color="#FFE802"/>
<stop offset="0.6" stop-color="#FFDC02"/>
<stop offset="0.67" stop-color="#D58903"/>
<stop offset="0.74" stop-color="#B54B04"/>
<stop offset="0.75" stop-color="#B84F04"/>
<stop offset="0.77" stop-color="#C15A04"/>
<stop offset="0.79" stop-color="#CF6D03"/>
<stop offset="0.81" stop-color="#E48803"/>
<stop offset="0.82" stop-color="#FFAC02"/>
<stop offset="0.92" stop-color="#FFE802"/>
<stop offset="1" stop-color="#FFAC00"/>
</linearGradient>
<linearGradient id="paint12_linear_1752_51791" x1="1001.99" y1="344.063" x2="947.253" y2="379.827" gradientUnits="userSpaceOnUse">
<stop stop-color="#CB6E10"/>
<stop offset="0.02" stop-color="#CB6E10"/>
<stop offset="0.03" stop-color="#D37812"/>
<stop offset="0.04" stop-color="#DF8314"/>
<stop offset="0.05" stop-color="#DA7C12"/>
<stop offset="0.06" stop-color="#DA7C12"/>
<stop offset="0.07" stop-color="#E89317"/>
<stop offset="0.08" stop-color="#CC7010"/>
<stop offset="0.1" stop-color="#D27712"/>
<stop offset="0.11" stop-color="#DC8114"/>
<stop offset="0.12" stop-color="#CE6F10"/>
<stop offset="0.14" stop-color="#DB7F14"/>
<stop offset="0.15" stop-color="#E08615"/>
<stop offset="0.16" stop-color="#CD6D10"/>
<stop offset="0.19" stop-color="#CD6D10"/>
<stop offset="0.21" stop-color="#DD8214"/>
<stop offset="0.22" stop-color="#CD6D10"/>
<stop offset="0.25" stop-color="#CD6D10"/>
<stop offset="0.27" stop-color="#E07C15"/>
<stop offset="0.28" stop-color="#D46A12"/>
<stop offset="0.29" stop-color="#D36812"/>
<stop offset="0.32" stop-color="#D97314"/>
<stop offset="0.33" stop-color="#E07C15"/>
<stop offset="0.34" stop-color="#D46A12"/>
<stop offset="0.35" stop-color="#D36812"/>
<stop offset="0.37" stop-color="#D36812"/>
<stop offset="0.38" stop-color="#D97314"/>
<stop offset="0.39" stop-color="#E07C15"/>
<stop offset="0.4" stop-color="#D46A12"/>
<stop offset="0.41" stop-color="#D36812"/>
<stop offset="0.44" stop-color="#D97314"/>
<stop offset="0.45" stop-color="#F7A31B"/>
<stop offset="0.46" stop-color="#D46A12"/>
<stop offset="0.47" stop-color="#D36812"/>
<stop offset="0.5" stop-color="#D97314"/>
<stop offset="0.51" stop-color="#FFB01D"/>
<stop offset="0.52" stop-color="#E07C15"/>
<stop offset="0.53" stop-color="#D87113"/>
<stop offset="0.54" stop-color="#D46A12"/>
<stop offset="0.55" stop-color="#D36812"/>
<stop offset="0.57" stop-color="#FFB01D"/>
<stop offset="0.58" stop-color="#C1680A"/>
<stop offset="0.59" stop-color="#A84C02"/>
<stop offset="0.6" stop-color="#A34500"/>
<stop offset="0.61" stop-color="#A14300"/>
<stop offset="0.62" stop-color="#CA730D"/>
<stop offset="0.63" stop-color="#BF7315"/>
<stop offset="0.64" stop-color="#7A310D"/>
<stop offset="0.65" stop-color="#70290C"/>
<stop offset="0.67" stop-color="#722C0C"/>
<stop offset="0.68" stop-color="#AB6213"/>
<stop offset="0.69" stop-color="#C57916"/>
<stop offset="0.7" stop-color="#823B0E"/>
<stop offset="0.71" stop-color="#77300D"/>
<stop offset="0.72" stop-color="#702A0C"/>
<stop offset="0.74" stop-color="#7D360E"/>
<stop offset="0.75" stop-color="#F8AA1C"/>
<stop offset="0.76" stop-color="#BF7415"/>
<stop offset="0.77" stop-color="#A15812"/>
<stop offset="0.78" stop-color="#7A340D"/>
<stop offset="0.79" stop-color="#712B0C"/>
<stop offset="0.8" stop-color="#7D360E"/>
<stop offset="0.81" stop-color="#CE8217"/>
<stop offset="0.82" stop-color="#A85106"/>
<stop offset="0.83" stop-color="#923A00"/>
<stop offset="0.84" stop-color="#9A5000"/>
<stop offset="0.86" stop-color="#FFB01D"/>
<stop offset="0.87" stop-color="#B1580E"/>
<stop offset="0.88" stop-color="#AE550D"/>
<stop offset="0.89" stop-color="#B65E0F"/>
<stop offset="0.9" stop-color="#FFB01D"/>
<stop offset="0.91" stop-color="#B0570D"/>
<stop offset="0.92" stop-color="#AE550D"/>
<stop offset="0.93" stop-color="#AE550D"/>
<stop offset="0.94" stop-color="#C77011"/>
<stop offset="0.95" stop-color="#B0570D"/>
<stop offset="1" stop-color="#AE550D"/>
</linearGradient>
<linearGradient id="paint13_linear_1752_51791" x1="991.556" y1="330.46" x2="943.795" y2="405.241" gradientUnits="userSpaceOnUse">
<stop stop-color="#FFBC04"/>
<stop offset="0.06" stop-color="#FFC107"/>
<stop offset="0.13" stop-color="#FFD010"/>
<stop offset="0.2" stop-color="#FFE81E"/>
<stop offset="0.26" stop-color="#FFFC29"/>
<stop offset="0.31" stop-color="#FFE019"/>
<stop offset="0.35" stop-color="#FFCC0D"/>
<stop offset="0.4" stop-color="#FFC006"/>
<stop offset="0.44" stop-color="#FFBC04"/>
<stop offset="0.6" stop-color="#FFB404"/>
<stop offset="0.65" stop-color="#D88D05"/>
<stop offset="0.74" stop-color="#9B5007"/>
<stop offset="0.76" stop-color="#9F5407"/>
<stop offset="0.78" stop-color="#AA5F07"/>
<stop offset="0.8" stop-color="#BD7107"/>
<stop offset="0.82" stop-color="#E39606"/>
<stop offset="0.92" stop-color="#FFBC04"/>
<stop offset="1" stop-color="#E99602"/>
</linearGradient>
<linearGradient id="paint14_linear_1752_51791" x1="1000.31" y1="340.154" x2="948.586" y2="373.694" gradientUnits="userSpaceOnUse">
<stop stop-color="#FFB234"/>
<stop offset="0.08" stop-color="#FFD53B"/>
<stop offset="0.18" stop-color="#FBAB35"/>
<stop offset="0.2" stop-color="#EA9033"/>
<stop offset="0.22" stop-color="#DE7D31"/>
<stop offset="0.24" stop-color="#D7722F"/>
<stop offset="0.26" stop-color="#D56E2F"/>
<stop offset="0.36" stop-color="#F0AB39"/>
<stop offset="0.4" stop-color="#FFCD3E"/>
<stop offset="0.56" stop-color="#FFD53B"/>
<stop offset="0.62" stop-color="#FFD93E"/>
<stop offset="0.67" stop-color="#FFE546"/>
<stop offset="0.73" stop-color="#FFF953"/>
<stop offset="0.74" stop-color="#FFFF57"/>
<stop offset="0.83" stop-color="#FFE948"/>
<stop offset="0.92" stop-color="#FFDA3E"/>
<stop offset="1" stop-color="#FFD53B"/>
</linearGradient>
<linearGradient id="paint15_linear_1752_51791" x1="995.252" y1="343.436" x2="953.651" y2="370.411" gradientUnits="userSpaceOnUse">
<stop stop-color="#CB6E10"/>
<stop offset="0.06" stop-color="#CF7311"/>
<stop offset="0.13" stop-color="#DB8214"/>
<stop offset="0.2" stop-color="#EE9A19"/>
<stop offset="0.26" stop-color="#FDAE1D"/>
<stop offset="0.31" stop-color="#E79217"/>
<stop offset="0.35" stop-color="#D87E13"/>
<stop offset="0.4" stop-color="#CE7211"/>
<stop offset="0.44" stop-color="#CB6E10"/>
<stop offset="0.6" stop-color="#D36812"/>
<stop offset="0.65" stop-color="#AB4F10"/>
<stop offset="0.74" stop-color="#6E280C"/>
<stop offset="0.76" stop-color="#722B0C"/>
<stop offset="0.78" stop-color="#7D340D"/>
<stop offset="0.8" stop-color="#90420E"/>
<stop offset="0.82" stop-color="#A9550F"/>
<stop offset="0.92" stop-color="#CB6E10"/>
<stop offset="1" stop-color="#AE550D"/>
</linearGradient>
<linearGradient id="paint16_linear_1752_51791" x1="988.994" y1="347.056" x2="959.507" y2="366.176" gradientUnits="userSpaceOnUse">
<stop stop-color="#CB6E10"/>
<stop offset="0.06" stop-color="#CF7311"/>
<stop offset="0.13" stop-color="#DB8214"/>
<stop offset="0.2" stop-color="#EE9A19"/>
<stop offset="0.26" stop-color="#FDAE1D"/>
<stop offset="0.31" stop-color="#E79217"/>
<stop offset="0.35" stop-color="#D87E13"/>
<stop offset="0.4" stop-color="#CE7211"/>
<stop offset="0.44" stop-color="#CB6E10"/>
<stop offset="0.6" stop-color="#D36812"/>
<stop offset="0.65" stop-color="#AB4F10"/>
<stop offset="0.74" stop-color="#6E280C"/>
<stop offset="0.76" stop-color="#722B0C"/>
<stop offset="0.78" stop-color="#7D340D"/>
<stop offset="0.8" stop-color="#90420E"/>
<stop offset="0.82" stop-color="#A9550F"/>
<stop offset="0.92" stop-color="#CB6E10"/>
<stop offset="1" stop-color="#AE550D"/>
</linearGradient>
<linearGradient id="paint17_linear_1752_51791" x1="984.819" y1="365.49" x2="949.251" y2="333.798" gradientUnits="userSpaceOnUse">
<stop stop-color="#FFE802"/>
<stop offset="0.09" stop-color="#FFEC07"/>
<stop offset="0.2" stop-color="#FFF616"/>
<stop offset="0.26" stop-color="#FFFF22"/>
<stop offset="0.31" stop-color="#FFF312"/>
<stop offset="0.38" stop-color="#FFEB06"/>
<stop offset="0.44" stop-color="#FFE802"/>
<stop offset="0.6" stop-color="#FFDC02"/>
<stop offset="0.67" stop-color="#D58903"/>
<stop offset="0.74" stop-color="#B54B04"/>
<stop offset="0.75" stop-color="#B84F04"/>
<stop offset="0.77" stop-color="#C15A04"/>
<stop offset="0.79" stop-color="#CF6D03"/>
<stop offset="0.81" stop-color="#E48803"/>
<stop offset="0.82" stop-color="#FFAC02"/>
<stop offset="0.92" stop-color="#FFE802"/>
<stop offset="1" stop-color="#FFAC00"/>
</linearGradient>
<linearGradient id="paint18_linear_1752_51791" x1="15.3299" y1="154.641" x2="130.209" y2="303.225" gradientUnits="userSpaceOnUse">
<stop stop-color="#CB6E10"/>
<stop offset="0.02" stop-color="#CB6E10"/>
<stop offset="0.03" stop-color="#D37812"/>
<stop offset="0.04" stop-color="#DF8314"/>
<stop offset="0.05" stop-color="#DA7C12"/>
<stop offset="0.06" stop-color="#DA7C12"/>
<stop offset="0.07" stop-color="#E89317"/>
<stop offset="0.08" stop-color="#CC7010"/>
<stop offset="0.1" stop-color="#D27712"/>
<stop offset="0.11" stop-color="#DC8114"/>
<stop offset="0.12" stop-color="#CE6F10"/>
<stop offset="0.14" stop-color="#DB7F14"/>
<stop offset="0.15" stop-color="#E08615"/>
<stop offset="0.16" stop-color="#CD6D10"/>
<stop offset="0.19" stop-color="#CD6D10"/>
<stop offset="0.21" stop-color="#DD8214"/>
<stop offset="0.22" stop-color="#CD6D10"/>
<stop offset="0.25" stop-color="#CD6D10"/>
<stop offset="0.27" stop-color="#E07C15"/>
<stop offset="0.28" stop-color="#D46A12"/>
<stop offset="0.29" stop-color="#D36812"/>
<stop offset="0.32" stop-color="#D97314"/>
<stop offset="0.33" stop-color="#E07C15"/>
<stop offset="0.34" stop-color="#D46A12"/>
<stop offset="0.35" stop-color="#D36812"/>
<stop offset="0.37" stop-color="#D36812"/>
<stop offset="0.38" stop-color="#D97314"/>
<stop offset="0.39" stop-color="#E07C15"/>
<stop offset="0.4" stop-color="#D46A12"/>
<stop offset="0.41" stop-color="#D36812"/>
<stop offset="0.44" stop-color="#D97314"/>
<stop offset="0.45" stop-color="#F7A31B"/>
<stop offset="0.46" stop-color="#D46A12"/>
<stop offset="0.47" stop-color="#D36812"/>
<stop offset="0.5" stop-color="#D97314"/>
<stop offset="0.51" stop-color="#FFB01D"/>
<stop offset="0.52" stop-color="#E07C15"/>
<stop offset="0.53" stop-color="#D87113"/>
<stop offset="0.54" stop-color="#D46A12"/>
<stop offset="0.55" stop-color="#D36812"/>
<stop offset="0.57" stop-color="#FFB01D"/>
<stop offset="0.58" stop-color="#C1680A"/>
<stop offset="0.59" stop-color="#A84C02"/>
<stop offset="0.6" stop-color="#A34500"/>
<stop offset="0.61" stop-color="#A14300"/>
<stop offset="0.62" stop-color="#CA730D"/>
<stop offset="0.63" stop-color="#BF7315"/>
<stop offset="0.64" stop-color="#7A310D"/>
<stop offset="0.65" stop-color="#70290C"/>
<stop offset="0.67" stop-color="#722C0C"/>
<stop offset="0.68" stop-color="#AB6213"/>
<stop offset="0.69" stop-color="#C57916"/>
<stop offset="0.7" stop-color="#823B0E"/>
<stop offset="0.71" stop-color="#77300D"/>
<stop offset="0.72" stop-color="#702A0C"/>
<stop offset="0.74" stop-color="#7D360E"/>
<stop offset="0.75" stop-color="#F8AA1C"/>
<stop offset="0.76" stop-color="#BF7415"/>
<stop offset="0.77" stop-color="#A15812"/>
<stop offset="0.78" stop-color="#7A340D"/>
<stop offset="0.79" stop-color="#712B0C"/>
<stop offset="0.8" stop-color="#7D360E"/>
<stop offset="0.81" stop-color="#CE8217"/>
<stop offset="0.82" stop-color="#A85106"/>
<stop offset="0.83" stop-color="#923A00"/>
<stop offset="0.84" stop-color="#9A5000"/>
<stop offset="0.86" stop-color="#FFB01D"/>
<stop offset="0.87" stop-color="#B1580E"/>
<stop offset="0.88" stop-color="#AE550D"/>
<stop offset="0.89" stop-color="#B65E0F"/>
<stop offset="0.9" stop-color="#FFB01D"/>
<stop offset="0.91" stop-color="#B0570D"/>
<stop offset="0.92" stop-color="#AE550D"/>
<stop offset="0.93" stop-color="#AE550D"/>
<stop offset="0.94" stop-color="#C77011"/>
<stop offset="0.95" stop-color="#B0570D"/>
<stop offset="1" stop-color="#AE550D"/>
</linearGradient>
<linearGradient id="paint19_linear_1752_51791" x1="64.7638" y1="126.625" x2="127.001" y2="383.097" gradientUnits="userSpaceOnUse">
<stop stop-color="#FFBC04"/>
<stop offset="0.06" stop-color="#FFC107"/>
<stop offset="0.13" stop-color="#FFD010"/>
<stop offset="0.2" stop-color="#FFE81E"/>
<stop offset="0.26" stop-color="#FFFC29"/>
<stop offset="0.31" stop-color="#FFE019"/>
<stop offset="0.35" stop-color="#FFCC0D"/>
<stop offset="0.4" stop-color="#FFC006"/>
<stop offset="0.44" stop-color="#FFBC04"/>
<stop offset="0.6" stop-color="#FFB404"/>
<stop offset="0.65" stop-color="#D88D05"/>
<stop offset="0.74" stop-color="#9B5007"/>
<stop offset="0.76" stop-color="#9F5407"/>
<stop offset="0.78" stop-color="#AA5F07"/>
<stop offset="0.8" stop-color="#BD7107"/>
<stop offset="0.82" stop-color="#E39606"/>
<stop offset="0.92" stop-color="#FFBC04"/>
<stop offset="1" stop-color="#E99602"/>
</linearGradient>
<linearGradient id="paint20_linear_1752_51791" x1="32.5698" y1="147.473" x2="142.417" y2="287.466" gradientUnits="userSpaceOnUse">
<stop stop-color="#FFB234"/>
<stop offset="0.08" stop-color="#FFD53B"/>
<stop offset="0.18" stop-color="#FBAB35"/>
<stop offset="0.2" stop-color="#EA9033"/>
<stop offset="0.22" stop-color="#DE7D31"/>
<stop offset="0.24" stop-color="#D7722F"/>
<stop offset="0.26" stop-color="#D56E2F"/>
<stop offset="0.36" stop-color="#F0AB39"/>
<stop offset="0.4" stop-color="#FFCD3E"/>
<stop offset="0.56" stop-color="#FFD53B"/>
<stop offset="0.62" stop-color="#FFD93E"/>
<stop offset="0.67" stop-color="#FFE546"/>
<stop offset="0.73" stop-color="#FFF953"/>
<stop offset="0.74" stop-color="#FFFF57"/>
<stop offset="0.83" stop-color="#FFE948"/>
<stop offset="0.92" stop-color="#FFDA3E"/>
<stop offset="1" stop-color="#FFD53B"/>
</linearGradient>
<linearGradient id="paint21_linear_1752_51791" x1="43.346" y1="161.219" x2="131.622" y2="273.721" gradientUnits="userSpaceOnUse">
<stop stop-color="#CB6E10"/>
<stop offset="0.06" stop-color="#CF7311"/>
<stop offset="0.13" stop-color="#DB8214"/>
<stop offset="0.2" stop-color="#EE9A19"/>
<stop offset="0.26" stop-color="#FDAE1D"/>
<stop offset="0.31" stop-color="#E79217"/>
<stop offset="0.35" stop-color="#D87E13"/>
<stop offset="0.4" stop-color="#CE7211"/>
<stop offset="0.44" stop-color="#CB6E10"/>
<stop offset="0.6" stop-color="#D36812"/>
<stop offset="0.65" stop-color="#AB4F10"/>
<stop offset="0.74" stop-color="#6E280C"/>
<stop offset="0.76" stop-color="#722B0C"/>
<stop offset="0.78" stop-color="#7D340D"/>
<stop offset="0.8" stop-color="#90420E"/>
<stop offset="0.82" stop-color="#A9550F"/>
<stop offset="0.92" stop-color="#CB6E10"/>
<stop offset="1" stop-color="#AE550D"/>
</linearGradient>
<linearGradient id="paint22_linear_1752_51791" x1="57.2515" y1="176.5" x2="120.09" y2="256.583" gradientUnits="userSpaceOnUse">
<stop stop-color="#CB6E10"/>
<stop offset="0.06" stop-color="#CF7311"/>
<stop offset="0.13" stop-color="#DB8214"/>
<stop offset="0.2" stop-color="#EE9A19"/>
<stop offset="0.26" stop-color="#FDAE1D"/>
<stop offset="0.31" stop-color="#E79217"/>
<stop offset="0.35" stop-color="#D87E13"/>
<stop offset="0.4" stop-color="#CE7211"/>
<stop offset="0.44" stop-color="#CB6E10"/>
<stop offset="0.6" stop-color="#D36812"/>
<stop offset="0.65" stop-color="#AB4F10"/>
<stop offset="0.74" stop-color="#6E280C"/>
<stop offset="0.76" stop-color="#722B0C"/>
<stop offset="0.78" stop-color="#7D340D"/>
<stop offset="0.8" stop-color="#90420E"/>
<stop offset="0.82" stop-color="#A9550F"/>
<stop offset="0.92" stop-color="#CB6E10"/>
<stop offset="1" stop-color="#AE550D"/>
</linearGradient>
<linearGradient id="paint23_linear_1752_51791" x1="41.4718" y1="234.549" x2="204.404" y2="166.116" gradientUnits="userSpaceOnUse">
<stop stop-color="#FFE802"/>
<stop offset="0.09" stop-color="#FFEC07"/>
<stop offset="0.2" stop-color="#FFF616"/>
<stop offset="0.26" stop-color="#FFFF22"/>
<stop offset="0.31" stop-color="#FFF312"/>
<stop offset="0.38" stop-color="#FFEB06"/>
<stop offset="0.44" stop-color="#FFE802"/>
<stop offset="0.6" stop-color="#FFDC02"/>
<stop offset="0.67" stop-color="#D58903"/>
<stop offset="0.74" stop-color="#B54B04"/>
<stop offset="0.75" stop-color="#B84F04"/>
<stop offset="0.77" stop-color="#C15A04"/>
<stop offset="0.79" stop-color="#CF6D03"/>
<stop offset="0.81" stop-color="#E48803"/>
<stop offset="0.82" stop-color="#FFAC02"/>
<stop offset="0.92" stop-color="#FFE802"/>
<stop offset="1" stop-color="#FFAC00"/>
</linearGradient>
<radialGradient id="paint24_radial_1752_51791" cx="0" cy="0" r="1" gradientUnits="userSpaceOnUse" gradientTransform="translate(41.5107 189.889) rotate(-21.9149) scale(53.6463 8.40016)">
<stop stop-color="white"/>
<stop offset="1"/>
</radialGradient>
<radialGradient id="paint25_radial_1752_51791" cx="0" cy="0" r="1" gradientUnits="userSpaceOnUse" gradientTransform="translate(64.7643 193.248) rotate(15.8594) scale(31.4429 5.00066)">
<stop stop-color="white"/>
<stop offset="1"/>
</radialGradient>
</defs>
</svg>
