<svg width="319" height="334" viewBox="0 0 319 334" fill="none" xmlns="http://www.w3.org/2000/svg">
<g style="mix-blend-mode:luminosity">
<path d="M25.2082 241.798C18.073 196.428 32.7046 142.237 69.0126 96.024C105.321 49.8111 154.514 22.6553 200.185 18.8018L253.112 20.9092L281.472 43.3684C333.766 88.9491 330.394 182.79 272.921 256.038C215.449 329.286 125.04 354.846 68.4104 314.896L39.8096 292.677L25.2082 241.798Z" fill="url(#paint0_linear_1752_51901)"/>
<path d="M44.587 292.47C99.4404 335.491 190.963 310.533 249.008 236.472C307.052 162.411 309.671 67.6671 254.818 24.6153C199.965 -18.4365 108.442 6.55163 50.3975 80.6127C-7.64716 154.674 -10.2362 249.418 44.587 292.47Z" fill="url(#paint1_linear_1752_51901)"/>
<path d="M109.558 316.612C159.805 316.612 214.267 287.017 251.689 239.329C280.079 203.202 296.155 160.752 296.848 119.898C297.54 79.0442 282.758 44.121 255.06 22.3844C235.636 7.48504 211.739 -0.399212 187.261 0.0155679C137.014 0.0155679 82.5524 29.64 45.1606 77.298C-13.6668 152.262 -15.2324 249.565 41.6983 294.243C61.1393 309.155 85.0596 317.04 109.558 316.612ZM187.322 6.03679C210.453 5.63006 233.041 13.0571 251.418 27.1111C277.58 47.6736 291.609 80.5796 290.887 119.808C290.164 159.036 274.539 200.462 246.932 235.626C210.804 281.869 157.998 310.59 109.558 310.59C86.4348 311.005 63.8531 303.576 45.4917 289.516C-8.69934 246.886 -6.83273 153.346 49.9474 81.0011C86.2554 34.758 138.881 6.03679 187.322 6.03679Z" fill="url(#paint2_linear_1752_51901)"/>
<path d="M116.194 285.152C156.446 285.152 200.25 261.067 230.597 222.682C277.864 162.47 279.52 84.5851 234.3 49.09C218.984 37.3606 200.151 31.154 180.862 31.4779C140.61 31.4779 96.8056 55.5628 66.4586 93.9481C43.6381 123.001 30.6624 156.96 29.8495 189.595C29.0366 222.23 40.6877 250.229 62.8158 267.54C78.1163 279.257 96.9252 285.462 116.194 285.152ZM180.741 37.4991C198.685 37.1785 216.211 42.9284 230.477 53.8166C273.077 87.2645 270.939 161.356 225.75 218.979C196.607 256.07 154.639 279.191 116.194 279.191C98.2504 279.512 80.7246 273.762 66.4586 262.874C45.9563 246.767 35.088 220.725 35.8407 189.806C36.5933 158.887 49.1777 125.77 71.1853 97.7114C100.298 60.5604 142.296 37.4991 180.741 37.4991Z" fill="url(#paint3_linear_1752_51901)"/>
<path d="M193.596 150.147L164.46 125.328L168.923 120.063C172.281 116.558 175.097 112.571 177.28 108.235C177.663 107.097 177.662 105.864 177.276 104.727C176.89 103.59 176.142 102.61 175.145 101.94C174.369 101.218 173.407 100.726 172.367 100.518C171.327 100.311 170.25 100.397 169.256 100.767C166.461 101.981 164.024 103.891 162.178 106.316C157.932 111.291 155.905 115.541 156.043 119.107C157.224 127.596 159.175 135.961 161.87 144.098C164.374 151.975 166.252 160.037 167.487 168.21C167.859 173.928 166.986 179.659 164.928 185.008C162.098 192.397 157.924 199.199 152.617 205.07C142.992 216.397 132.938 223.131 122.457 225.273C111.976 227.415 101.085 225.002 89.7838 218.033L79.6089 229.984L66.2032 218.537L76.7021 206.214C69.6604 198.824 65.3857 189.23 64.6003 179.052C63.6112 168.399 69.1425 156.017 81.194 141.905L86.4522 135.711L115.618 160.525L108.994 168.316C104.232 173.428 99.9996 179.008 96.3615 184.972C95.7736 186.122 95.6235 187.447 95.9392 188.699C96.2549 189.952 97.0148 191.047 98.0777 191.781C98.8878 192.572 99.8921 193.136 100.989 193.416C102.087 193.695 103.238 193.68 104.328 193.373C107.068 192.342 109.455 190.547 111.207 188.202C115.786 183.26 119.697 177.738 122.841 171.779C124.537 167.914 124.253 161.91 121.991 153.767C119.217 144.288 116.972 134.662 115.264 124.934C114.579 118.489 115.248 111.972 117.227 105.8C119.553 98.217 123.465 91.2159 128.705 85.2615C136.756 75.7684 145.557 70.4342 155.107 69.2588C164.658 68.0834 174.885 71.061 185.789 78.1918L194.398 68.0637L207.833 79.5047L199.189 89.6093C207.141 98.5457 211.076 107.568 210.995 116.677C210.914 125.785 206.899 135.035 198.95 144.425C197.831 145.727 196.034 147.626 193.596 150.147Z" fill="url(#paint4_linear_1752_51901)"/>
<path d="M204.504 159.426L175.367 134.607L179.831 129.342C183.19 125.828 186.005 121.832 188.182 117.485C188.569 116.352 188.57 115.123 188.185 113.989C187.8 112.856 187.05 111.882 186.053 111.219C185.279 110.494 184.317 110 183.276 109.792C182.235 109.585 181.157 109.673 180.164 110.046C177.366 111.255 174.928 113.167 173.086 115.595C168.866 120.544 166.821 124.808 166.951 128.386C168.134 136.885 170.086 145.26 172.784 153.407C175.285 161.274 177.162 169.326 178.395 177.489C178.769 183.217 177.898 188.958 175.842 194.316C173.014 201.699 168.851 208.498 163.56 214.372C153.874 225.548 143.87 232.426 133.371 234.582C122.872 236.738 112.009 234.36 100.698 227.342L90.5227 239.292L77.1114 227.969L87.6398 215.64C80.5667 208.222 76.2819 198.582 75.5141 188.361C74.5251 177.708 80.0563 165.326 92.1078 151.214L97.4015 145.044L126.538 169.863L119.907 177.625C115.163 182.733 110.928 188.291 107.263 194.221C106.674 195.377 106.524 196.706 106.841 197.964C107.158 199.222 107.92 200.322 108.986 201.06C109.797 201.849 110.802 202.411 111.898 202.69C112.995 202.969 114.146 202.956 115.236 202.652C117.976 201.621 120.362 199.827 122.114 197.482C126.653 192.542 130.535 187.038 133.667 181.106C135.376 177.258 135.079 171.236 132.816 163.094C130.04 153.605 127.793 143.969 126.083 134.231C125.404 127.795 126.075 121.288 128.052 115.126C130.375 107.535 134.285 100.524 139.524 94.5586C147.579 85.0851 156.38 79.7509 165.927 78.5558C175.473 77.3608 185.702 80.3482 196.614 87.5184L205.223 77.3903L218.652 88.8018L210.014 98.9358C217.966 107.872 221.902 116.895 221.82 126.003C221.739 135.112 217.722 144.352 209.769 153.723C208.745 155.036 206.978 156.929 204.504 159.426Z" fill="url(#paint5_linear_1752_51901)"/>
<path style="mix-blend-mode:screen" d="M76.0577 61.4339C67.4473 69.6528 112.847 97.3204 177.485 123.272C242.123 149.223 301.492 163.644 310.133 155.455C318.773 147.266 273.373 119.599 208.735 93.6173C144.098 67.6357 84.6981 53.2751 76.0577 61.4339Z" fill="url(#paint6_radial_1752_51901)"/>
<path style="mix-blend-mode:screen" d="M121.618 129.083C126.555 134.562 162.562 129.745 202.061 118.335C241.56 106.925 269.529 93.2867 264.531 87.8074C259.534 82.3281 223.587 87.1752 184.118 98.5553C144.649 109.935 116.68 123.634 121.618 129.083Z" fill="url(#paint7_radial_1752_51901)"/>
</g>
<defs>
<linearGradient id="paint0_linear_1752_51901" x1="288.711" y1="36.2007" x2="65.6241" y2="324.741" gradientUnits="userSpaceOnUse">
<stop stop-color="#CB6E10"/>
<stop offset="0.02" stop-color="#CB6E10"/>
<stop offset="0.03" stop-color="#D37812"/>
<stop offset="0.04" stop-color="#DF8314"/>
<stop offset="0.05" stop-color="#DA7C12"/>
<stop offset="0.06" stop-color="#DA7C12"/>
<stop offset="0.07" stop-color="#E89317"/>
<stop offset="0.08" stop-color="#CC7010"/>
<stop offset="0.1" stop-color="#D27712"/>
<stop offset="0.11" stop-color="#DC8114"/>
<stop offset="0.12" stop-color="#CE6F10"/>
<stop offset="0.14" stop-color="#DB7F14"/>
<stop offset="0.15" stop-color="#E08615"/>
<stop offset="0.16" stop-color="#CD6D10"/>
<stop offset="0.19" stop-color="#CD6D10"/>
<stop offset="0.21" stop-color="#DD8214"/>
<stop offset="0.22" stop-color="#CD6D10"/>
<stop offset="0.25" stop-color="#CD6D10"/>
<stop offset="0.27" stop-color="#E07C15"/>
<stop offset="0.28" stop-color="#D46A12"/>
<stop offset="0.29" stop-color="#D36812"/>
<stop offset="0.32" stop-color="#D97314"/>
<stop offset="0.33" stop-color="#E07C15"/>
<stop offset="0.34" stop-color="#D46A12"/>
<stop offset="0.35" stop-color="#D36812"/>
<stop offset="0.37" stop-color="#D36812"/>
<stop offset="0.38" stop-color="#D97314"/>
<stop offset="0.39" stop-color="#E07C15"/>
<stop offset="0.4" stop-color="#D46A12"/>
<stop offset="0.41" stop-color="#D36812"/>
<stop offset="0.44" stop-color="#D97314"/>
<stop offset="0.45" stop-color="#F7A31B"/>
<stop offset="0.46" stop-color="#D46A12"/>
<stop offset="0.47" stop-color="#D36812"/>
<stop offset="0.5" stop-color="#D97314"/>
<stop offset="0.51" stop-color="#FFB01D"/>
<stop offset="0.52" stop-color="#E07C15"/>
<stop offset="0.53" stop-color="#D87113"/>
<stop offset="0.54" stop-color="#D46A12"/>
<stop offset="0.55" stop-color="#D36812"/>
<stop offset="0.57" stop-color="#FFB01D"/>
<stop offset="0.58" stop-color="#C1680A"/>
<stop offset="0.59" stop-color="#A84C02"/>
<stop offset="0.6" stop-color="#A34500"/>
<stop offset="0.61" stop-color="#A14300"/>
<stop offset="0.62" stop-color="#CA730D"/>
<stop offset="0.63" stop-color="#BF7315"/>
<stop offset="0.64" stop-color="#7A310D"/>
<stop offset="0.65" stop-color="#70290C"/>
<stop offset="0.67" stop-color="#722C0C"/>
<stop offset="0.68" stop-color="#AB6213"/>
<stop offset="0.69" stop-color="#C57916"/>
<stop offset="0.7" stop-color="#823B0E"/>
<stop offset="0.71" stop-color="#77300D"/>
<stop offset="0.72" stop-color="#702A0C"/>
<stop offset="0.74" stop-color="#7D360E"/>
<stop offset="0.75" stop-color="#F8AA1C"/>
<stop offset="0.76" stop-color="#BF7415"/>
<stop offset="0.77" stop-color="#A15812"/>
<stop offset="0.78" stop-color="#7A340D"/>
<stop offset="0.79" stop-color="#712B0C"/>
<stop offset="0.8" stop-color="#7D360E"/>
<stop offset="0.81" stop-color="#CE8217"/>
<stop offset="0.82" stop-color="#A85106"/>
<stop offset="0.83" stop-color="#923A00"/>
<stop offset="0.84" stop-color="#9A5000"/>
<stop offset="0.86" stop-color="#FFB01D"/>
<stop offset="0.87" stop-color="#B1580E"/>
<stop offset="0.88" stop-color="#AE550D"/>
<stop offset="0.89" stop-color="#B65E0F"/>
<stop offset="0.9" stop-color="#FFB01D"/>
<stop offset="0.91" stop-color="#B0570D"/>
<stop offset="0.92" stop-color="#AE550D"/>
<stop offset="0.93" stop-color="#AE550D"/>
<stop offset="0.94" stop-color="#C77011"/>
<stop offset="0.95" stop-color="#B0570D"/>
<stop offset="1" stop-color="#AE550D"/>
</linearGradient>
<linearGradient id="paint1_linear_1752_51901" x1="192.71" y1="-18.2052" x2="71.8494" y2="479.845" gradientUnits="userSpaceOnUse">
<stop stop-color="#FFBC04"/>
<stop offset="0.06" stop-color="#FFC107"/>
<stop offset="0.13" stop-color="#FFD010"/>
<stop offset="0.2" stop-color="#FFE81E"/>
<stop offset="0.26" stop-color="#FFFC29"/>
<stop offset="0.31" stop-color="#FFE019"/>
<stop offset="0.35" stop-color="#FFCC0D"/>
<stop offset="0.4" stop-color="#FFC006"/>
<stop offset="0.44" stop-color="#FFBC04"/>
<stop offset="0.6" stop-color="#FFB404"/>
<stop offset="0.65" stop-color="#D88D05"/>
<stop offset="0.74" stop-color="#9B5007"/>
<stop offset="0.76" stop-color="#9F5407"/>
<stop offset="0.78" stop-color="#AA5F07"/>
<stop offset="0.8" stop-color="#BD7107"/>
<stop offset="0.82" stop-color="#E39606"/>
<stop offset="0.92" stop-color="#FFBC04"/>
<stop offset="1" stop-color="#E99602"/>
</linearGradient>
<linearGradient id="paint2_linear_1752_51901" x1="255.234" y1="22.2794" x2="41.9175" y2="294.137" gradientUnits="userSpaceOnUse">
<stop stop-color="#FFB234"/>
<stop offset="0.08" stop-color="#FFD53B"/>
<stop offset="0.18" stop-color="#FBAB35"/>
<stop offset="0.2" stop-color="#EA9033"/>
<stop offset="0.22" stop-color="#DE7D31"/>
<stop offset="0.24" stop-color="#D7722F"/>
<stop offset="0.26" stop-color="#D56E2F"/>
<stop offset="0.36" stop-color="#F0AB39"/>
<stop offset="0.4" stop-color="#FFCD3E"/>
<stop offset="0.56" stop-color="#FFD53B"/>
<stop offset="0.62" stop-color="#FFD93E"/>
<stop offset="0.67" stop-color="#FFE546"/>
<stop offset="0.73" stop-color="#FFF953"/>
<stop offset="0.74" stop-color="#FFFF57"/>
<stop offset="0.83" stop-color="#FFE948"/>
<stop offset="0.92" stop-color="#FFDA3E"/>
<stop offset="1" stop-color="#FFD53B"/>
</linearGradient>
<linearGradient id="paint3_linear_1752_51901" x1="234.302" y1="48.9739" x2="62.8757" y2="267.445" gradientUnits="userSpaceOnUse">
<stop stop-color="#CB6E10"/>
<stop offset="0.06" stop-color="#CF7311"/>
<stop offset="0.13" stop-color="#DB8214"/>
<stop offset="0.2" stop-color="#EE9A19"/>
<stop offset="0.26" stop-color="#FDAE1D"/>
<stop offset="0.31" stop-color="#E79217"/>
<stop offset="0.35" stop-color="#D87E13"/>
<stop offset="0.4" stop-color="#CE7211"/>
<stop offset="0.44" stop-color="#CB6E10"/>
<stop offset="0.6" stop-color="#D36812"/>
<stop offset="0.65" stop-color="#AB4F10"/>
<stop offset="0.74" stop-color="#6E280C"/>
<stop offset="0.76" stop-color="#722B0C"/>
<stop offset="0.78" stop-color="#7D340D"/>
<stop offset="0.8" stop-color="#90420E"/>
<stop offset="0.82" stop-color="#A9550F"/>
<stop offset="0.92" stop-color="#CB6E10"/>
<stop offset="1" stop-color="#AE550D"/>
</linearGradient>
<linearGradient id="paint4_linear_1752_51901" x1="201.405" y1="73.8225" x2="73.1886" y2="224.277" gradientUnits="userSpaceOnUse">
<stop stop-color="#CB6E10"/>
<stop offset="0.06" stop-color="#CF7311"/>
<stop offset="0.13" stop-color="#DB8214"/>
<stop offset="0.2" stop-color="#EE9A19"/>
<stop offset="0.26" stop-color="#FDAE1D"/>
<stop offset="0.31" stop-color="#E79217"/>
<stop offset="0.35" stop-color="#D87E13"/>
<stop offset="0.4" stop-color="#CE7211"/>
<stop offset="0.44" stop-color="#CB6E10"/>
<stop offset="0.6" stop-color="#D36812"/>
<stop offset="0.65" stop-color="#AB4F10"/>
<stop offset="0.74" stop-color="#6E280C"/>
<stop offset="0.76" stop-color="#722B0C"/>
<stop offset="0.78" stop-color="#7D340D"/>
<stop offset="0.8" stop-color="#90420E"/>
<stop offset="0.82" stop-color="#A9550F"/>
<stop offset="0.92" stop-color="#CB6E10"/>
<stop offset="1" stop-color="#AE550D"/>
</linearGradient>
<linearGradient id="paint5_linear_1752_51901" x1="84.8366" y1="66.1511" x2="277.858" y2="349.902" gradientUnits="userSpaceOnUse">
<stop stop-color="#FFE802"/>
<stop offset="0.09" stop-color="#FFEC07"/>
<stop offset="0.2" stop-color="#FFF616"/>
<stop offset="0.26" stop-color="#FFFF22"/>
<stop offset="0.31" stop-color="#FFF312"/>
<stop offset="0.38" stop-color="#FFEB06"/>
<stop offset="0.44" stop-color="#FFE802"/>
<stop offset="0.6" stop-color="#FFDC02"/>
<stop offset="0.67" stop-color="#D58903"/>
<stop offset="0.74" stop-color="#B54B04"/>
<stop offset="0.75" stop-color="#B84F04"/>
<stop offset="0.77" stop-color="#C15A04"/>
<stop offset="0.79" stop-color="#CF6D03"/>
<stop offset="0.81" stop-color="#E48803"/>
<stop offset="0.82" stop-color="#FFAC02"/>
<stop offset="0.92" stop-color="#FFE802"/>
<stop offset="1" stop-color="#FFAC00"/>
</linearGradient>
<radialGradient id="paint6_radial_1752_51901" cx="0" cy="0" r="1" gradientUnits="userSpaceOnUse" gradientTransform="translate(237.866 104.649) rotate(-158.085) scale(104.178 16.3126)">
<stop stop-color="white"/>
<stop offset="1"/>
</radialGradient>
<radialGradient id="paint7_radial_1752_51901" cx="0" cy="0" r="1" gradientUnits="userSpaceOnUse" gradientTransform="translate(192.714 111.17) rotate(164.141) scale(61.0601 9.71096)">
<stop stop-color="white"/>
<stop offset="1"/>
</radialGradient>
</defs>
</svg>
